/* XPM */
static char * bottom_right_active_xpm[] = {
"16 16 3 1",
" 	c None",
".	c #8F1919",
"+	c #8D1919",
"             ..+",
"             ..+",
"             ..+",
"             ..+",
"             ..+",
"             ..+",
"             ..+",
"             ..+",
"             ..+",
"             ..+",
"             ..+",
"             ..+",
"             ..+",
"...............+",
"...............+",
"++++++++++++++++"};
