/* XPM */
static char * bottom_active_xpm[] = {
"32 3 3 1",
" 	c None",
".	c #8D1919",
"+	c #8F1919",
"................................",
"................................",
"++++++++++++++++++++++++++++++++"};
