/* XPM */
static char * close_active_xpm[] = {
"24 21 98 2",
"  	c None",
". 	c #E25858",
"+ 	c #B62020",
"@ 	c #E05252",
"# 	c #B21F1F",
"$ 	c #DF4C4C",
"% 	c #AE1F1F",
"& 	c #DE4646",
"* 	c #DE4545",
"= 	c #AB1E1E",
"- 	c #DD4141",
"; 	c #DD3F3F",
"> 	c #A71D1D",
", 	c #DC3B3B",
"' 	c #DC3838",
") 	c #E15656",
"! 	c #E25959",
"~ 	c #DC3939",
"{ 	c #E15353",
"] 	c #E15555",
"^ 	c #A31D1D",
"/ 	c #DB3636",
"( 	c #DB3232",
"_ 	c #E15252",
": 	c #FFFFFF",
"< 	c #ED9999",
"[ 	c #E56C6C",
"} 	c #DB3333",
"| 	c #E67070",
"1 	c #E05050",
"2 	c #9F1C1C",
"3 	c #DB3131",
"4 	c #DA2C2C",
"5 	c #EC9595",
"6 	c #EC9494",
"7 	c #E46969",
"8 	c #E56969",
"9 	c #EC9393",
"0 	c #DE4343",
"a 	c #9B1B1B",
"b 	c #DA2D2D",
"c 	c #D82626",
"d 	c #D92626",
"e 	c #E46464",
"f 	c #EC9191",
"g 	c #E36262",
"h 	c #981B1B",
"i 	c #D92A2A",
"j 	c #D22525",
"k 	c #E35F5F",
"l 	c #EB8D8D",
"m 	c #FEF9F9",
"n 	c #E35E5E",
"o 	c #941A1A",
"p 	c #CC2424",
"q 	c #E25C5C",
"r 	c #EA8A8A",
"s 	c #FDF3F3",
"t 	c #FDF6F6",
"u 	c #E25B5B",
"v 	c #901919",
"w 	c #D42525",
"x 	c #C52323",
"y 	c #E25A5A",
"z 	c #EA8787",
"A 	c #E98585",
"B 	c #8D1919",
"C 	c #D02525",
"D 	c #BF2222",
"E 	c #EA8686",
"F 	c #E98484",
"G 	c #E05151",
"H 	c #E98282",
"I 	c #891818",
"J 	c #B82121",
"K 	c #DA2E2E",
"L 	c #DF4A4A",
"M 	c #B92121",
"N 	c #E04D4D",
"O 	c #851717",
"P 	c #C82323",
"Q 	c #B42020",
"R 	c #D92727",
"S 	c #D62626",
"T 	c #811717",
"U 	c #C42323",
"V 	c #AD1F1F",
"W 	c #7F1616",
"X 	c #C02222",
"Y 	c #AC1E1E",
"Z 	c #801717",
"` 	c #BC2121",
" .	c #B82020",
"..	c #831717",
"+.	c #841717",
"@.	c #B01F1F",
"#.	c #AA1E1E",
"$.	c #861818",
". . . . . . . . . . . . . . . . . . . . . . . + ",
"@ @ @ @ @ @ @ @ @ @ @ @ @ @ @ @ @ @ @ @ @ @ @ # ",
"$ $ $ $ $ $ $ $ $ $ $ $ $ $ $ $ $ $ $ $ $ $ $ % ",
"& * * * * * * * * * * * * * * * * * * * * * * = ",
"- ; ; ; ; ; ; ; ; ; ; ; ; ; ; ; ; ; ; ; ; ; ; > ",
", ' ' ' ' ' ' ' ) ! ~ ' ' ~ { ] ' ' ' ' ' ' ' ^ ",
"/ ( ( ( ( ( ( _ : < [ ( } | < : 1 ( ( ( ( ( ( 2 ",
"3 4 4 4 4 4 4 * 5 : 6 7 8 9 : 5 0 4 4 4 4 4 4 a ",
"b c c c c c c d e f : f f : f g c c c c c c c h ",
"i j j j j j j j j k l : m l n j j j j j j j j o ",
"c p p p p p p p p q r s t r u p p p p p p p p v ",
"w x x x x x x x y z : z z : A ) x x x x x x x B ",
"C D D D D D D } E : F G G H : E 3 D D D D D D I ",
"p J J J J J J K : H L J M N H : i J J J J J J O ",
"P # # # # # # Q R S # # # Q c c Q # # # # # # T ",
"U V V V V V V V V V V V V V V V V V V V V V V W ",
"X Y Y Y Y Y Y Y Y Y Y Y Y Y Y Y Y Y Y Y Y Y Y Z ",
"` Y Y Y Y Y Y Y Y Y Y Y Y Y Y Y Y Y Y Y Y Y Y T ",
" .= = = = = = = = = = = = = = = = = = = = = = ..",
"Q = = = = = = = = = = = = = = = = = = = = = = +.",
"@.#.#.#.#.#.#.#.#.#.#.#.#.#.#.#.#.#.#.#.#.#.#.$."};
