/* XPM */
static char * close_prelight_xpm[] = {
"24 21 96 2",
"  	c None",
". 	c #F43232",
"+ 	c #F76161",
"@ 	c #E20C0C",
"# 	c #F42C2C",
"$ 	c #F65959",
"% 	c #DE0C0C",
"& 	c #F42929",
"* 	c #F65252",
"= 	c #D90B0B",
"- 	c #F42525",
"; 	c #F64C4C",
"> 	c #D50B0B",
", 	c #F32020",
"' 	c #F54646",
") 	c #D10B0B",
"! 	c #F31C1C",
"~ 	c #F53F3F",
"{ 	c #F65B5B",
"] 	c #F75E5E",
"^ 	c #F54040",
"/ 	c #F65858",
"( 	c #CD0B0B",
"_ 	c #F31919",
": 	c #F53838",
"< 	c #FFFFFF",
"[ 	c #FA9C9C",
"} 	c #F87171",
"| 	c #F53939",
"1 	c #F87474",
"2 	c #FA9B9B",
"3 	c #F65656",
"4 	c #C90B0B",
"5 	c #F31313",
"6 	c #F64B4B",
"7 	c #FCC7C7",
"8 	c #FA9797",
"9 	c #F76D6D",
"0 	c #FA9898",
"a 	c #F54848",
"b 	c #C50A0A",
"c 	c #F21010",
"d 	c #F42B2B",
"e 	c #F76969",
"f 	c #F99393",
"g 	c #F76666",
"h 	c #C10A0A",
"i 	c #F20D0D",
"j 	c #F76363",
"k 	c #F99191",
"l 	c #FFF9F9",
"m 	c #FFFAFA",
"n 	c #F76262",
"o 	c #BC0A0A",
"p 	c #ED0C0C",
"q 	c #F31F1F",
"r 	c #F76060",
"s 	c #F98D8D",
"t 	c #FFF6F6",
"u 	c #F98C8C",
"v 	c #F75F5F",
"w 	c #B80A0A",
"x 	c #E90C0C",
"y 	c #F31818",
"z 	c #F65C5C",
"A 	c #F98A8A",
"B 	c #F98888",
"C 	c #F65A5A",
"D 	c #B40909",
"E 	c #E50C0C",
"F 	c #F21111",
"G 	c #F98686",
"H 	c #F65555",
"I 	c #F43535",
"J 	c #B00909",
"K 	c #E00C0C",
"L 	c #F00D0D",
"M 	c #F64E4E",
"N 	c #F10D0D",
"O 	c #F65151",
"P 	c #F98484",
"Q 	c #F42F2F",
"R 	c #AC0909",
"S 	c #DC0C0C",
"T 	c #EA0C0C",
"U 	c #EC0C0C",
"V 	c #F42828",
"W 	c #A80909",
"X 	c #E40C0C",
"Y 	c #A50909",
"Z 	c #E70C0C",
"` 	c #A60909",
" .	c #DF0C0C",
"..	c #A90909",
"+.	c #AB0909",
"@.	c #F20F0F",
". + + + + + + + + + + + + + + + + + + + + + + @ ",
"# $ $ $ $ $ $ $ $ $ $ $ $ $ $ $ $ $ $ $ $ $ $ % ",
"& * * * * * * * * * * * * * * * * * * * * * * = ",
"- ; ; ; ; ; ; ; ; ; ; ; ; ; ; ; ; ; ; ; ; ; ; > ",
", ' ' ' ' ' ' ' ' ' ' ' ' ' ' ' ' ' ' ' ' ' ' ) ",
"! ~ ~ ~ ~ ~ ~ ~ { ] ^ ~ ~ ^ / { ~ ~ ~ ~ ~ ~ ~ ( ",
"_ : : : : : : / < [ } : | 1 2 < 3 : : : : : : 4 ",
"5 . . . . . . 6 7 < 8 9 9 8 < 0 a . . . . . . b ",
"c d d d d d d # e f < f f < f g d d d d d d d h ",
"i - - - - - - - - j k l m k n - - - - - - - - o ",
"p q q q q q q q q r s < t u v q q q q q q q q w ",
"x y y y y y y y z A < A A < B C y y y y y y y D ",
"E F F F F F F : B < G H H G < B I F F F F F F J ",
"K L L L L L L . < G M L N O P < Q L L L L L L R ",
"S T T T T T T U d V T T T T & & T T T T T T T W ",
"= X X X X X X X X X X X X X X X X X X X X X X Y ",
"S Z Z Z Z Z Z Z Z Z Z Z Z Z Z Z Z Z Z Z Z Z Z ` ",
" .T T T T T T T T T T T T T T T T T T T T T T W ",
"@ p p p p p p p p p p p p p p p p p p p p p p ..",
"Z N N N N N N N N N N N N N N N N N N N N N N +.",
"T @.@.@.@.@.@.@.@.@.@.@.@.@.@.@.@.@.@.@.@.@.@.R "};
