/* XPM */
static char * close_pressed_xpm[] = {
"24 21 54 1",
" 	c None",
".	c #8E2F2F",
"+	c #852C2C",
"@	c #8C2F2F",
"#	c #862D2D",
"$	c #8A2E2E",
"%	c #872D2D",
"&	c #882D2D",
"*	c #892E2E",
"=	c #842C2C",
"-	c #8B2E2E",
";	c #832C2C",
">	c #B03B3B",
",	c #B33C3C",
"'	c #AC3939",
")	c #B43C3C",
"!	c #FFFFFF",
"~	c #D78787",
"{	c #C65353",
"]	c #903030",
"^	c #C75656",
"/	c #D78686",
"(	c #8F3030",
"_	c #C65454",
":	c #D68585",
"<	c #A93838",
"[	c #923131",
"}	c #C65555",
"|	c #C55252",
"1	c #943131",
"2	c #D78888",
"3	c #933131",
"4	c #953232",
"5	c #C75858",
"6	c #C75757",
"7	c #963232",
"8	c #973232",
"9	c #C95C5C",
"0	c #D88989",
"a	c #BC3F3F",
"b	c #D88B8B",
"c	c #C85959",
"d	c #BA3E3E",
"e	c #993333",
"f	c #BE3F3F",
"g	c #D98D8D",
"h	c #9A3333",
"i	c #9C3434",
"j	c #BD3F3F",
"k	c #9B3434",
"l	c #9D3434",
"m	c #9E3535",
"n	c #A03535",
"o	c #A13636",
".++++++++++++++++++++++.",
"@######################@",
"$%%%%%%%%%%%%%%%%%%%%%%$",
"&&&&&&&&&&&&&&&&&&&&&&&&",
"#**********************#",
"=----------------------=",
";@@@@@@@@>,.@@.'>@@@@@@;",
";.......)!~{.]^/!>.....;",
";((((((('~!/_^:!~<(((((;",
";]]]]]]][}~!~~!~|]]]]]];",
"=[[[[[[[[1^2!!2^[[[[[[[=",
"=33333333452!!~64333333=",
"=7777777890!00!~5877777=",
"#8888888ab!0cc2!bd88888#",
"+eeeeeeef!g5eh9b!aeeeee+",
"+hhhhhhhijdhhhkaakhhhhh+",
"#kkkkkkkkkkkkkkkkkkkkkk#",
"#llllllllllllllllllllll#",
"%mmmmmmmmmmmmmmmmmmmmmm%",
"&nnnnnnnnnnnnnnnnnnnnnn&",
"&oooooooooooooooooooooo&"};
