/* XPM */
static char * hide_pressed_xpm[] = {
"24 21 36 1",
" 	c None",
".	c #8E2F2F",
"+	c #852C2C",
"@	c #8C2F2F",
"#	c #862D2D",
"$	c #8A2E2E",
"%	c #872D2D",
"&	c #882D2D",
"*	c #892E2E",
"=	c #842C2C",
"-	c #8B2E2E",
";	c #832C2C",
">	c #8F3030",
",	c #903030",
"'	c #923131",
")	c #933131",
"!	c #963232",
"~	c #973232",
"{	c #C04141",
"]	c #D27777",
"^	c #D27979",
"/	c #D17575",
"(	c #BF4040",
"_	c #993333",
":	c #FFFFFF",
"<	c #9A3333",
"[	c #C14545",
"}	c #D47D7D",
"|	c #D58080",
"1	c #D37B7B",
"2	c #C04343",
"3	c #9B3434",
"4	c #9D3434",
"5	c #9E3535",
"6	c #A03535",
"7	c #A13636",
".++++++++++++++++++++++.",
"@######################@",
"$%%%%%%%%%%%%%%%%%%%%%%$",
"&&&&&&&&&&&&&&&&&&&&&&&&",
"#**********************#",
"=----------------------=",
";@@@@@@@@@@@@@@@@@@@@@@;",
";......................;",
";>>>>>>>>>>>>>>>>>>>>>>;",
";,,,,,,,,,,,,,,,,,,,,,,;",
"=''''''''''''''''''''''=",
"=))))))))))))))))))))))=",
"=!!!!!!!!!!!!!!!!!!!!!!=",
"#~~~~~~~~{]^^^^^/(~~~~~#",
"+________:::::::::_____+",
"+<<<<<<<<[}|||||12<<<<<+",
"#3333333333333333333333#",
"#4444444444444444444444#",
"%5555555555555555555555%",
"&6666666666666666666666&",
"&7777777777777777777777&"};
