/* XPM */
static char * hide_prelight_xpm[] = {
"24 21 61 1",
" 	c None",
".	c #F43232",
"+	c #F76161",
"@	c #E20C0C",
"#	c #F42C2C",
"$	c #F65959",
"%	c #DE0C0C",
"&	c #F42929",
"*	c #F65252",
"=	c #D90B0B",
"-	c #F42525",
";	c #F64C4C",
">	c #D50B0B",
",	c #F32020",
"'	c #F54646",
")	c #D10B0B",
"!	c #F31C1C",
"~	c #F53F3F",
"{	c #CD0B0B",
"]	c #F31919",
"^	c #F53838",
"/	c #C90B0B",
"(	c #F31313",
"_	c #C50A0A",
":	c #F21010",
"<	c #F42B2B",
"[	c #C10A0A",
"}	c #F20D0D",
"|	c #BC0A0A",
"1	c #ED0C0C",
"2	c #F31F1F",
"3	c #B80A0A",
"4	c #E90C0C",
"5	c #F31818",
"6	c #B40909",
"7	c #E50C0C",
"8	c #F21111",
"9	c #F53C3C",
"0	c #F87373",
"a	c #F87777",
"b	c #F87272",
"c	c #F53A3A",
"d	c #B00909",
"e	c #E00C0C",
"f	c #F00D0D",
"g	c #FFFFFF",
"h	c #AC0909",
"i	c #DC0C0C",
"j	c #EA0C0C",
"k	c #F43434",
"l	c #F76F6F",
"m	c #A80909",
"n	c #E40C0C",
"o	c #A50909",
"p	c #E70C0C",
"q	c #A60909",
"r	c #DF0C0C",
"s	c #A90909",
"t	c #F10D0D",
"u	c #AB0909",
"v	c #F20F0F",
".++++++++++++++++++++++@",
"#$$$$$$$$$$$$$$$$$$$$$$%",
"&**********************=",
"-;;;;;;;;;;;;;;;;;;;;;;>",
",'''''''''''''''''''''')",
"!~~~~~~~~~~~~~~~~~~~~~~{",
"]^^^^^^^^^^^^^^^^^^^^^^/",
"(......................_",
":<<<<<<<<<<<<<<<<<<<<<<[",
"}----------------------|",
"122222222222222222222223",
"455555555555555555555556",
"7888888890aaaaabc888888d",
"efffffffgggggggggffffffh",
"ijjjjjjjkl00000l.jjjjjjm",
"=nnnnnnnnnnnnnnnnnnnnnno",
"ippppppppppppppppppppppq",
"rjjjjjjjjjjjjjjjjjjjjjjm",
"@1111111111111111111111s",
"pttttttttttttttttttttttu",
"jvvvvvvvvvvvvvvvvvvvvvvh"};
