/* XPM */
static char * hide_inactive_xpm[] = {
"24 21 60 1",
" 	c None",
".	c #E4E0E0",
"+	c #DCD7D7",
"@	c #D1CBCB",
"#	c #E2DEDE",
"$	c #DAD5D5",
"%	c #CFC9C9",
"&	c #E1DCDC",
"*	c #D9D3D3",
"=	c #CEC8C8",
"-	c #DFDBDB",
";	c #D7D2D2",
">	c #CDC7C7",
",	c #DED9D9",
"'	c #D6D0D0",
")	c #CCC5C5",
"!	c #DCD8D8",
"~	c #D4CFCF",
"{	c #CBC4C4",
"]	c #DBD6D6",
"^	c #D3CDCD",
"/	c #CAC3C3",
"(	c #DAD4D4",
"_	c #D2CCCC",
":	c #C9C2C2",
"<	c #D8D3D3",
"[	c #D0CACA",
"}	c #C7C0C0",
"|	c #D7D1D1",
"1	c #CFC8C8",
"2	c #C6BFBF",
"3	c #D5D0D0",
"4	c #C5BEBE",
"5	c #D4CECE",
"6	c #C4BDBD",
"7	c #D3CCCC",
"8	c #CAC4C4",
"9	c #D1CCCC",
"0	c #DAD6D6",
"a	c #DBD7D7",
"b	c #C3BBBB",
"c	c #FFFFFF",
"d	c #C2BABA",
"e	c #D0C9C9",
"f	c #C8C1C1",
"g	c #D9D5D5",
"h	c #D9D4D4",
"i	c #C1B9B9",
"j	c #BFB7B7",
"k	c #CDC6C6",
"l	c #C5BDBD",
"m	c #BEB6B6",
"n	c #CCC4C4",
"o	c #C3BCBC",
"p	c #BDB5B5",
"q	c #BCB4B4",
"r	c #C9C1C1",
"s	c #C0B9B9",
"t	c #BBB2B2",
"u	c #BAB1B1",
".++++++++++++++++++++++@",
"#$$$$$$$$$$$$$$$$$$$$$$%",
"&**********************=",
"-;;;;;;;;;;;;;;;;;;;;;;>",
",'''''''''''''''''''''')",
"!~~~~~~~~~~~~~~~~~~~~~~{",
"]^^^^^^^^^^^^^^^^^^^^^^/",
"(______________________:",
"<[[[[[[[[[[[[[[[[[[[[[[}",
"|11111111111111111111112",
"3>>>>>>>>>>>>>>>>>>>>>>4",
"5))))))))))))))))))))))6",
"7888888890aaaaa0@888888b",
"@:::::::ccccccccc::::::d",
"efffffff[g$$$$$h%ffffffi",
"=2222222222222222222222j",
"kllllllllllllllllllllllm",
"noooooooooooooooooooooop",
"/ddddddddddddddddddddddq",
"rsssssssssssssssssssssst",
"}jjjjjjjjjjjjjjjjjjjjjju"};
