/* XPM */
static char * hide_active_xpm[] = {
"24 21 71 1",
" 	c None",
".	c #E25858",
"+	c #B62020",
"@	c #E05252",
"#	c #B21F1F",
"$	c #DF4C4C",
"%	c #AE1F1F",
"&	c #DE4646",
"*	c #DE4545",
"=	c #AB1E1E",
"-	c #DD4141",
";	c #DD3F3F",
">	c #A71D1D",
",	c #DC3B3B",
"'	c #DC3838",
")	c #A31D1D",
"!	c #DB3636",
"~	c #DB3232",
"{	c #9F1C1C",
"]	c #DB3131",
"^	c #DA2C2C",
"/	c #9B1B1B",
"(	c #DA2D2D",
"_	c #D82626",
":	c #981B1B",
"<	c #D92A2A",
"[	c #D22525",
"}	c #941A1A",
"|	c #CC2424",
"1	c #901919",
"2	c #D42525",
"3	c #C52323",
"4	c #8D1919",
"5	c #D02525",
"6	c #BF2222",
"7	c #DC3939",
"8	c #E67070",
"9	c #E67373",
"0	c #E66F6F",
"a	c #DC3737",
"b	c #891818",
"c	c #B82121",
"d	c #FFFFFF",
"e	c #FEF9F9",
"f	c #FEFAFA",
"g	c #FEF7F7",
"h	c #FEFBFB",
"i	c #FEF8F8",
"j	c #FEFCFC",
"k	c #851717",
"l	c #C82323",
"m	c #DA3030",
"n	c #E56D6D",
"o	c #E67171",
"p	c #E56B6B",
"q	c #DA2E2E",
"r	c #811717",
"s	c #C42323",
"t	c #AD1F1F",
"u	c #7F1616",
"v	c #C02222",
"w	c #AC1E1E",
"x	c #801717",
"y	c #BC2121",
"z	c #B82020",
"A	c #831717",
"B	c #B42020",
"C	c #841717",
"D	c #B01F1F",
"E	c #AA1E1E",
"F	c #861818",
".......................+",
"@@@@@@@@@@@@@@@@@@@@@@@#",
"$$$$$$$$$$$$$$$$$$$$$$$%",
"&**********************=",
"-;;;;;;;;;;;;;;;;;;;;;;>",
",'''''''''''''''''''''')",
"!~~~~~~~~~~~~~~~~~~~~~~{",
"]^^^^^^^^^^^^^^^^^^^^^^/",
"(______________________:",
"<[[[[[[[[[[[[[[[[[[[[[[}",
"_||||||||||||||||||||||1",
"233333333333333333333334",
"5666666678999990a666666b",
"|cccccccdefgdhidjcccccck",
"l#######mnooooopq######r",
"sttttttttttttttttttttttu",
"vwwwwwwwwwwwwwwwwwwwwwwx",
"ywwwwwwwwwwwwwwwwwwwwwwr",
"z======================A",
"B======================C",
"DEEEEEEEEEEEEEEEEEEEEEEF"};
