/* XPM */
static char * left_active_xpm[] = {
"3 32 3 1",
" 	c None",
".	c #8D1919",
"+	c #8F1919",
".++",
".++",
".++",
".++",
".++",
".++",
".++",
".++",
".++",
".++",
".++",
".++",
".++",
".++",
".++",
".++",
".++",
".++",
".++",
".++",
".++",
".++",
".++",
".++",
".++",
".++",
".++",
".++",
".++",
".++",
".++",
".++"};
