/* XPM */
static char * maximize_pressed_xpm[] = {
"24 21 42 1",
" 	c None",
".	c #8E2F2F",
"+	c #852C2C",
"@	c #8C2F2F",
"#	c #862D2D",
"$	c #8A2E2E",
"%	c #872D2D",
"&	c #882D2D",
"*	c #892E2E",
"=	c #842C2C",
"-	c #8B2E2E",
";	c #832C2C",
">	c #AF3A3A",
",	c #FFFFFF",
"'	c #BE3F3F",
")	c #8F3030",
"!	c #D17676",
"~	c #D27878",
"{	c #903030",
"]	c #D47D7D",
"^	c #923131",
"/	c #C04141",
"(	c #D37A7A",
"_	c #D47E7E",
":	c #DB9292",
"<	c #933131",
"[	c #963232",
"}	c #C24747",
"|	c #D58080",
"1	c #D68383",
"2	c #DB9393",
"3	c #973232",
"4	c #993333",
"5	c #D47F7F",
"6	c #9A3333",
"7	c #C24848",
"8	c #C34A4A",
"9	c #9B3434",
"0	c #9D3434",
"a	c #9E3535",
"b	c #A03535",
"c	c #A13636",
".++++++++++++++++++++++.",
"@######################@",
"$%%%%%%%%%%%%%%%%%%%%%%$",
"&&&&&&&&&&&&&&&&&&&&&&&&",
"#**********************#",
"=----------------------=",
";@@@@@@@@@@@@@@@@@@@@@@;",
";...........>,'........;",
";)))))))))))!,~))))))));",
";{{{{{{{{{{{],]{{{{{{{{;",
"=^^^^^^^^/(_:,:_(/^^^^^=",
"=<<<<<<<<,,,,,,,,,<<<<<=",
"=[[[[[[[[}|12,21|}[[[[[=",
"#33333333333|,|33333333#",
"+444444444445,544444444+",
"+666666666667,866666666+",
"#9999999999999999999999#",
"#0000000000000000000000#",
"%aaaaaaaaaaaaaaaaaaaaaa%",
"&bbbbbbbbbbbbbbbbbbbbbb&",
"&cccccccccccccccccccccc&"};
