/* XPM */
static char * maximize_prelight_xpm[] = {
"24 21 69 1",
" 	c None",
".	c #F43232",
"+	c #F76161",
"@	c #E20C0C",
"#	c #F42C2C",
"$	c #F65959",
"%	c #DE0C0C",
"&	c #F42929",
"*	c #F65252",
"=	c #D90B0B",
"-	c #F42525",
";	c #F64C4C",
">	c #D50B0B",
",	c #F32020",
"'	c #F54646",
")	c #D10B0B",
"!	c #F31C1C",
"~	c #F53F3F",
"{	c #CD0B0B",
"]	c #F31919",
"^	c #F53838",
"/	c #F65454",
"(	c #FFFFFF",
"_	c #F76060",
":	c #C90B0B",
"<	c #F31313",
"[	c #F98989",
"}	c #F98B8B",
"|	c #C50A0A",
"1	c #F21010",
"2	c #F42B2B",
"3	c #C10A0A",
"4	c #F20D0D",
"5	c #F64F4F",
"6	c #F98484",
"7	c #F98787",
"8	c #FA9A9A",
"9	c #BC0A0A",
"0	c #ED0C0C",
"a	c #F31F1F",
"b	c #B80A0A",
"c	c #E90C0C",
"d	c #F31818",
"e	c #F54848",
"f	c #F88181",
"g	c #F88383",
"h	c #F99494",
"i	c #B40909",
"j	c #E50C0C",
"k	c #F21111",
"l	c #F87C7C",
"m	c #B00909",
"n	c #E00C0C",
"o	c #F00D0D",
"p	c #F87676",
"q	c #AC0909",
"r	c #DC0C0C",
"s	c #EA0C0C",
"t	c #F43737",
"u	c #A80909",
"v	c #E40C0C",
"w	c #A50909",
"x	c #E70C0C",
"y	c #A60909",
"z	c #DF0C0C",
"A	c #A90909",
"B	c #F10D0D",
"C	c #AB0909",
"D	c #F20F0F",
".++++++++++++++++++++++@",
"#$$$$$$$$$$$$$$$$$$$$$$%",
"&**********************=",
"-;;;;;;;;;;;;;;;;;;;;;;>",
",'''''''''''''''''''''')",
"!~~~~~~~~~~~~~~~~~~~~~~{",
"]^^^^^^^^^^/(_^^^^^^^^^:",
"<..........[(}.........|",
"12222222222}(}2222222223",
"4-------5678(8765------9",
"0aaaaaaa(((((((((aaaaaab",
"cdddddddefgh(hgfeddddddi",
"jkkkkkkkkkkl(lkkkkkkkkkm",
"noooooooooop(poooooooooq",
"rsssssssssst(tsssssssssu",
"=vvvvvvvvvvvvvvvvvvvvvvw",
"rxxxxxxxxxxxxxxxxxxxxxxy",
"zssssssssssssssssssssssu",
"@0000000000000000000000A",
"xBBBBBBBBBBBBBBBBBBBBBBC",
"sDDDDDDDDDDDDDDDDDDDDDDq"};
