/* XPM */
static char * maximize_active_xpm[] = {
"24 21 74 1",
" 	c None",
".	c #E25858",
"+	c #B62020",
"@	c #E05252",
"#	c #B21F1F",
"$	c #DF4C4C",
"%	c #AE1F1F",
"&	c #DE4646",
"*	c #DE4545",
"=	c #AB1E1E",
"-	c #DD4141",
";	c #DD3F3F",
">	c #A71D1D",
",	c #DC3B3B",
"'	c #DC3838",
")	c #A31D1D",
"!	c #DB3636",
"~	c #DB3232",
"{	c #E04E4E",
"]	c #FFFFFF",
"^	c #E25B5B",
"/	c #9F1C1C",
"(	c #DB3131",
"_	c #DA2C2C",
":	c #EA8686",
"<	c #EA8888",
"[	c #9B1B1B",
"}	c #DA2D2D",
"|	c #D82626",
"1	c #981B1B",
"2	c #D92A2A",
"3	c #D22525",
"4	c #DF4B4B",
"5	c #E98181",
"6	c #E98585",
"7	c #ED9898",
"8	c #941A1A",
"9	c #CC2424",
"0	c #FEFBFB",
"a	c #FFFDFD",
"b	c #FEFCFC",
"c	c #901919",
"d	c #D42525",
"e	c #C52323",
"f	c #DE4343",
"g	c #E87E7E",
"h	c #EC9191",
"i	c #8D1919",
"j	c #D02525",
"k	c #BF2222",
"l	c #E77A7A",
"m	c #891818",
"n	c #B82121",
"o	c #E67373",
"p	c #FAE3E3",
"q	c #851717",
"r	c #C82323",
"s	c #DB3333",
"t	c #DB3434",
"u	c #811717",
"v	c #C42323",
"w	c #AD1F1F",
"x	c #7F1616",
"y	c #C02222",
"z	c #AC1E1E",
"A	c #801717",
"B	c #BC2121",
"C	c #B82020",
"D	c #831717",
"E	c #B42020",
"F	c #841717",
"G	c #B01F1F",
"H	c #AA1E1E",
"I	c #861818",
".......................+",
"@@@@@@@@@@@@@@@@@@@@@@@#",
"$$$$$$$$$$$$$$$$$$$$$$$%",
"&**********************=",
"-;;;;;;;;;;;;;;;;;;;;;;>",
",'''''''''''''''''''''')",
"!~~~~~~~~~~{]^~~~~~~~~~/",
"(__________:]<_________[",
"}||||||||||<]<|||||||||1",
"233333334567]76543333338",
"|999999900]]]]a]b999999c",
"deeeeeeefg5h]h5gfeeeeeei",
"jkkkkkkkkkkl]lkkkkkkkkkm",
"9nnnnnnnnnnoponnnnnnnnnq",
"r##########s]t#########u",
"vwwwwwwwwwwwwwwwwwwwwwwx",
"yzzzzzzzzzzzzzzzzzzzzzzA",
"Bzzzzzzzzzzzzzzzzzzzzzzu",
"C======================D",
"E======================F",
"GHHHHHHHHHHHHHHHHHHHHHHI"};
