/* XPM */
static char * shade_prelight_xpm[] = {
"24 21 75 1",
" 	c None",
".	c #F43232",
"+	c #F76161",
"@	c #E20C0C",
"#	c #F42C2C",
"$	c #F65959",
"%	c #DE0C0C",
"&	c #F42929",
"*	c #F65252",
"=	c #D90B0B",
"-	c #F42525",
";	c #F64C4C",
">	c #D50B0B",
",	c #F32020",
"'	c #F54646",
")	c #D10B0B",
"!	c #F31C1C",
"~	c #F53F3F",
"{	c #CD0B0B",
"]	c #F31919",
"^	c #F53838",
"/	c #C90B0B",
"(	c #F31313",
"_	c #C50A0A",
":	c #F21010",
"<	c #F42B2B",
"[	c #F76D6D",
"}	c #C10A0A",
"|	c #F20D0D",
"1	c #F87373",
"2	c #F99393",
"3	c #BC0A0A",
"4	c #ED0C0C",
"5	c #F31F1F",
"6	c #F76363",
"7	c #F99191",
"8	c #FFFFFF",
"9	c #F76262",
"0	c #B80A0A",
"a	c #E90C0C",
"b	c #F31818",
"c	c #F65C5C",
"d	c #F98A8A",
"e	c #F98888",
"f	c #F65A5A",
"g	c #B40909",
"h	c #E50C0C",
"i	c #F21111",
"j	c #F98686",
"k	c #F65555",
"l	c #F43535",
"m	c #B00909",
"n	c #E00C0C",
"o	c #F00D0D",
"p	c #FEE7E7",
"q	c #FA9C9C",
"r	c #F64E4E",
"s	c #F10D0D",
"t	c #F65151",
"u	c #F98484",
"v	c #F42F2F",
"w	c #AC0909",
"x	c #DC0C0C",
"y	c #EA0C0C",
"z	c #EC0C0C",
"A	c #F42828",
"B	c #A80909",
"C	c #E40C0C",
"D	c #A50909",
"E	c #E70C0C",
"F	c #A60909",
"G	c #DF0C0C",
"H	c #A90909",
"I	c #AB0909",
"J	c #F20F0F",
".++++++++++++++++++++++@",
"#$$$$$$$$$$$$$$$$$$$$$$%",
"&**********************=",
"-;;;;;;;;;;;;;;;;;;;;;;>",
",'''''''''''''''''''''')",
"!~~~~~~~~~~~~~~~~~~~~~~{",
"]^^^^^^^^^^^^^^^^^^^^^^/",
"(......................_",
":<<<<<<<<<<[[<<<<<<<<<<}",
"|---------1221---------3",
"455555555678879555555550",
"abbbbbbbcd8dd8efbbbbbbbg",
"hiiiiii^e8jkkj8eliiiiiim",
"noooooo.pqrostu8voooooow",
"xyyyyyyz<Ayyyy&&yyyyyyyB",
"=CCCCCCCCCCCCCCCCCCCCCCD",
"xEEEEEEEEEEEEEEEEEEEEEEF",
"GyyyyyyyyyyyyyyyyyyyyyyB",
"@4444444444444444444444H",
"EssssssssssssssssssssssI",
"yJJJJJJJJJJJJJJJJJJJJJJw"};
