/* XPM */
static char * shade_active_xpm[] = {
"24 21 77 1",
" 	c None",
".	c #E25858",
"+	c #B62020",
"@	c #E05252",
"#	c #B21F1F",
"$	c #DF4C4C",
"%	c #AE1F1F",
"&	c #DE4646",
"*	c #DE4545",
"=	c #AB1E1E",
"-	c #DD4141",
";	c #DD3F3F",
">	c #A71D1D",
",	c #DC3B3B",
"'	c #DC3838",
")	c #A31D1D",
"!	c #DB3636",
"~	c #DB3232",
"{	c #9F1C1C",
"]	c #DB3131",
"^	c #DA2C2C",
"/	c #9B1B1B",
"(	c #DA2D2D",
"_	c #D82626",
":	c #E46969",
"<	c #E56969",
"[	c #981B1B",
"}	c #D92A2A",
"|	c #D22525",
"1	c #E66F6F",
"2	c #EC9191",
"3	c #941A1A",
"4	c #CC2424",
"5	c #E25C5C",
"6	c #EB8D8D",
"7	c #FFFFFF",
"8	c #E25B5B",
"9	c #901919",
"0	c #D42525",
"a	c #C52323",
"b	c #E25A5A",
"c	c #EA8787",
"d	c #E98585",
"e	c #E15656",
"f	c #8D1919",
"g	c #D02525",
"h	c #BF2222",
"i	c #DB3333",
"j	c #EA8686",
"k	c #E98484",
"l	c #E05151",
"m	c #E98282",
"n	c #891818",
"o	c #B82121",
"p	c #DA2E2E",
"q	c #DF4A4A",
"r	c #B92121",
"s	c #E04D4D",
"t	c #851717",
"u	c #C82323",
"v	c #B42020",
"w	c #D92727",
"x	c #D62626",
"y	c #811717",
"z	c #C42323",
"A	c #AD1F1F",
"B	c #7F1616",
"C	c #C02222",
"D	c #AC1E1E",
"E	c #801717",
"F	c #BC2121",
"G	c #B82020",
"H	c #831717",
"I	c #841717",
"J	c #B01F1F",
"K	c #AA1E1E",
"L	c #861818",
".......................+",
"@@@@@@@@@@@@@@@@@@@@@@@#",
"$$$$$$$$$$$$$$$$$$$$$$$%",
"&**********************=",
"-;;;;;;;;;;;;;;;;;;;;;;>",
",'''''''''''''''''''''')",
"!~~~~~~~~~~~~~~~~~~~~~~{",
"]^^^^^^^^^^^^^^^^^^^^^^/",
"(_________^:<^_________[",
"}|||||||||1221|||||||||3",
"_44444444567768444444449",
"0aaaaaaabc7cc7deaaaaaaaf",
"ghhhhhhij7kllm7j]hhhhhhn",
"4oooooop7mqorsm7}oooooot",
"u######vwx###v__v######y",
"zAAAAAAAAAAAAAAAAAAAAAAB",
"CDDDDDDDDDDDDDDDDDDDDDDE",
"FDDDDDDDDDDDDDDDDDDDDDDy",
"G======================H",
"v======================I",
"JKKKKKKKKKKKKKKKKKKKKKKL"};
