/* XPM */
static char * shade_toggled_prelight_xpm[] = {
"24 21 78 1",
" 	c None",
".	c #F43232",
"+	c #F76161",
"@	c #E20C0C",
"#	c #F42C2C",
"$	c #F65959",
"%	c #DE0C0C",
"&	c #F42929",
"*	c #F65252",
"=	c #D90B0B",
"-	c #F42525",
";	c #F64C4C",
">	c #D50B0B",
",	c #F32020",
"'	c #F54646",
")	c #D10B0B",
"!	c #F31C1C",
"~	c #F53F3F",
"{	c #F65B5B",
"]	c #F75E5E",
"^	c #F54040",
"/	c #F65858",
"(	c #CD0B0B",
"_	c #F31919",
":	c #F53838",
"<	c #FFFFFF",
"[	c #FA9C9C",
"}	c #F87171",
"|	c #F53939",
"1	c #F87474",
"2	c #FA9B9B",
"3	c #F65656",
"4	c #C90B0B",
"5	c #F31313",
"6	c #F64B4B",
"7	c #FA9898",
"8	c #FA9797",
"9	c #F76D6D",
"0	c #F54848",
"a	c #C50A0A",
"b	c #F21010",
"c	c #F42B2B",
"d	c #F76969",
"e	c #F99393",
"f	c #F76666",
"g	c #C10A0A",
"h	c #F20D0D",
"i	c #F76060",
"j	c #F98D8D",
"k	c #F98C8C",
"l	c #F75F5F",
"m	c #BC0A0A",
"n	c #ED0C0C",
"o	c #F31F1F",
"p	c #F31818",
"q	c #F76565",
"r	c #F98A8A",
"s	c #B80A0A",
"t	c #E90C0C",
"u	c #B40909",
"v	c #E50C0C",
"w	c #F21111",
"x	c #B00909",
"y	c #E00C0C",
"z	c #F00D0D",
"A	c #AC0909",
"B	c #DC0C0C",
"C	c #EA0C0C",
"D	c #A80909",
"E	c #E40C0C",
"F	c #A50909",
"G	c #E70C0C",
"H	c #A60909",
"I	c #DF0C0C",
"J	c #A90909",
"K	c #F10D0D",
"L	c #AB0909",
"M	c #F20F0F",
".++++++++++++++++++++++@",
"#$$$$$$$$$$$$$$$$$$$$$$%",
"&**********************=",
"-;;;;;;;;;;;;;;;;;;;;;;>",
",'''''''''''''''''''''')",
"!~~~~~~~{]^~~^/{~~~~~~~(",
"_::::::/<[}:|12<3::::::4",
"5......67<8998<70......a",
"bcccccc#de<ee<efcccccccg",
"h--------ij<<kl--------m",
"noooooooopqrrqpoooooooos",
"tppppppppppqqppppppppppu",
"vwwwwwwwwwwwwwwwwwwwwwwx",
"yzzzzzzzzzzzzzzzzzzzzzzA",
"BCCCCCCCCCCCCCCCCCCCCCCD",
"=EEEEEEEEEEEEEEEEEEEEEEF",
"BGGGGGGGGGGGGGGGGGGGGGGH",
"ICCCCCCCCCCCCCCCCCCCCCCD",
"@nnnnnnnnnnnnnnnnnnnnnnJ",
"GKKKKKKKKKKKKKKKKKKKKKKL",
"CMMMMMMMMMMMMMMMMMMMMMMA"};
