/* XPM */
static char * shade_toggled_active_xpm[] = {
"24 21 82 1",
" 	c None",
".	c #E25858",
"+	c #B62020",
"@	c #E05252",
"#	c #B21F1F",
"$	c #DF4C4C",
"%	c #AE1F1F",
"&	c #DE4646",
"*	c #DE4545",
"=	c #AB1E1E",
"-	c #DD4141",
";	c #DD3F3F",
">	c #A71D1D",
",	c #DC3B3B",
"'	c #DC3838",
")	c #E15656",
"!	c #E25959",
"~	c #DC3939",
"{	c #E15353",
"]	c #E15555",
"^	c #A31D1D",
"/	c #DB3636",
"(	c #DB3232",
"_	c #E15252",
":	c #FFFFFF",
"<	c #ED9999",
"[	c #E56C6C",
"}	c #DB3333",
"|	c #E67070",
"1	c #E05050",
"2	c #9F1C1C",
"3	c #DB3131",
"4	c #DA2C2C",
"5	c #EC9595",
"6	c #EC9494",
"7	c #E46969",
"8	c #E56969",
"9	c #EC9393",
"0	c #DE4343",
"a	c #9B1B1B",
"b	c #DA2D2D",
"c	c #D82626",
"d	c #D92626",
"e	c #E46464",
"f	c #EC9191",
"g	c #E36262",
"h	c #981B1B",
"i	c #D92A2A",
"j	c #D22525",
"k	c #E35F5F",
"l	c #EB8D8D",
"m	c #E35E5E",
"n	c #941A1A",
"o	c #CC2424",
"p	c #E25C5C",
"q	c #EA8A8A",
"r	c #E25B5B",
"s	c #901919",
"t	c #D42525",
"u	c #C52323",
"v	c #8D1919",
"w	c #D02525",
"x	c #BF2222",
"y	c #891818",
"z	c #B82121",
"A	c #851717",
"B	c #C82323",
"C	c #811717",
"D	c #C42323",
"E	c #AD1F1F",
"F	c #7F1616",
"G	c #C02222",
"H	c #AC1E1E",
"I	c #801717",
"J	c #BC2121",
"K	c #B82020",
"L	c #831717",
"M	c #B42020",
"N	c #841717",
"O	c #B01F1F",
"P	c #AA1E1E",
"Q	c #861818",
".......................+",
"@@@@@@@@@@@@@@@@@@@@@@@#",
"$$$$$$$$$$$$$$$$$$$$$$$%",
"&**********************=",
"-;;;;;;;;;;;;;;;;;;;;;;>",
",''''''')!~''~{]'''''''^",
"/((((((_:<[(}|<:1((((((2",
"3444444*5:6789:50444444a",
"bccccccdef:ff:fgccccccch",
"ijjjjjjjjkl::lmjjjjjjjjn",
"cooooooooopqqrooooooooos",
"tuuuuuuuuuugguuuuuuuuuuv",
"wxxxxxxxxxxxxxxxxxxxxxxy",
"ozzzzzzzzzzzzzzzzzzzzzzA",
"B######################C",
"DEEEEEEEEEEEEEEEEEEEEEEF",
"GHHHHHHHHHHHHHHHHHHHHHHI",
"JHHHHHHHHHHHHHHHHHHHHHHC",
"K======================L",
"M======================N",
"OPPPPPPPPPPPPPPPPPPPPPPQ"};
