/* XPM */
static char * shade_pressed_xpm[] = {
"24 21 44 1",
" 	c None",
".	c #8E2F2F",
"+	c #852C2C",
"@	c #8C2F2F",
"#	c #862D2D",
"$	c #8A2E2E",
"%	c #872D2D",
"&	c #882D2D",
"*	c #892E2E",
"=	c #842C2C",
"-	c #8B2E2E",
";	c #832C2C",
">	c #8F3030",
",	c #903030",
"'	c #923131",
")	c #CA6161",
"!	c #C75656",
"~	c #D78888",
"{	c #933131",
"]	c #953232",
"^	c #C75858",
"/	c #FFFFFF",
"(	c #D78787",
"_	c #C75757",
":	c #963232",
"<	c #973232",
"[	c #C95C5C",
"}	c #DF9F9F",
"|	c #D88989",
"1	c #BC3F3F",
"2	c #D88B8B",
"3	c #C85959",
"4	c #BA3E3E",
"5	c #993333",
"6	c #BE3F3F",
"7	c #D98D8D",
"8	c #9A3333",
"9	c #9C3434",
"0	c #BD3F3F",
"a	c #9B3434",
"b	c #9D3434",
"c	c #9E3535",
"d	c #A03535",
"e	c #A13636",
".++++++++++++++++++++++.",
"@######################@",
"$%%%%%%%%%%%%%%%%%%%%%%$",
"&&&&&&&&&&&&&&&&&&&&&&&&",
"#**********************#",
"=----------------------=",
";@@@@@@@@@@@@@@@@@@@@@@;",
";......................;",
";>>>>>>>>>>>>>>>>>>>>>>;",
";,,,,,,,',,,)),,,,,,,,,;",
"=''''''''''!~~!''''''''=",
"={{{{{{{{]^~//(_]{{{{{{=",
"=:::::::<[}/||/(^<:::::=",
"#<<<<<<<12/|33~/24<<<<<#",
"+55555556/7^58[2/155555+",
"+8888888904888a11a88888+",
"#aaaaaaaaaaaaaaaaaaaaaa#",
"#bbbbbbbbbbbbbbbbbbbbbb#",
"%cccccccccccccccccccccc%",
"&dddddddddddddddddddddd&",
"&eeeeeeeeeeeeeeeeeeeeee&"};
