/* XPM */
static char * shade_inactive_xpm[] = {
"24 21 63 1",
" 	c None",
".	c #E4E0E0",
"+	c #DCD7D7",
"@	c #D1CBCB",
"#	c #E2DEDE",
"$	c #DAD5D5",
"%	c #CFC9C9",
"&	c #E1DCDC",
"*	c #D9D3D3",
"=	c #CEC8C8",
"-	c #DFDBDB",
";	c #D7D2D2",
">	c #CDC7C7",
",	c #DED9D9",
"'	c #D6D0D0",
")	c #CCC5C5",
"!	c #DCD8D8",
"~	c #D4CFCF",
"{	c #CBC4C4",
"]	c #DBD6D6",
"^	c #D3CDCD",
"/	c #CAC3C3",
"(	c #DAD4D4",
"_	c #D2CCCC",
":	c #C9C2C2",
"<	c #D8D3D3",
"[	c #D0CACA",
"}	c #C7C0C0",
"|	c #D7D1D1",
"1	c #CFC8C8",
"2	c #D9D4D4",
"3	c #C6BFBF",
"4	c #D5D0D0",
"5	c #DFDCDC",
"6	c #FFFFFF",
"7	c #C5BEBE",
"8	c #D4CECE",
"9	c #DFDADA",
"0	c #DEDADA",
"a	c #C4BDBD",
"b	c #D3CCCC",
"c	c #CAC4C4",
"d	c #D0CBCB",
"e	c #DDDADA",
"f	c #DDD9D9",
"g	c #C3BBBB",
"h	c #C2BABA",
"i	c #D0C9C9",
"j	c #C8C1C1",
"k	c #CEC7C7",
"l	c #C1B9B9",
"m	c #BFB7B7",
"n	c #CDC6C6",
"o	c #C5BDBD",
"p	c #BEB6B6",
"q	c #CCC4C4",
"r	c #C3BCBC",
"s	c #BDB5B5",
"t	c #BCB4B4",
"u	c #C9C1C1",
"v	c #C0B9B9",
"w	c #BBB2B2",
"x	c #BAB1B1",
".++++++++++++++++++++++@",
"#$$$$$$$$$$$$$$$$$$$$$$%",
"&**********************=",
"-;;;;;;;;;;;;;;;;;;;;;;>",
",'''''''''''''''''''''')",
"!~~~~~~~~~~~~~~~~~~~~~~{",
"]^^^^^^^^^^^^^^^^^^^^^^/",
"(______________________:",
"<[[[[[[[[[[++[[[[[[[[[[}",
"|1111111112&&*1111111113",
"4>>>>>>>><566-<>>>>>>>>7",
"8)))))));969960|)))))))a",
"bccccccd06e44f60[ccccccg",
"@::::::%6f8::~f6%::::::h",
"ijjjjjjj=kjjjj==jjjjjjjl",
"=3333333333333333333333m",
"noooooooooooooooooooooop",
"qrrrrrrrrrrrrrrrrrrrrrrs",
"/hhhhhhhhhhhhhhhhhhhhhht",
"uvvvvvvvvvvvvvvvvvvvvvvw",
"}mmmmmmmmmmmmmmmmmmmmmmx"};
