/* XPM */
static char * bottom_left_active_xpm[] = {
"16 16 3 1",
" 	c None",
".	c #14628A",
"+	c #14638D",
".++             ",
".++             ",
".++             ",
".++             ",
".++             ",
".++             ",
".++             ",
".++             ",
".++             ",
".++             ",
".++             ",
".++             ",
".++             ",
".+++++++++++++++",
".+++++++++++++++",
"................"};
