/* XPM */
static char * bottom_left_inactive_xpm[] = {
"15 16 2 1",
" 	c None",
".	c #BEB6B6",
"...            ",
"...            ",
"...            ",
"...            ",
"...            ",
"...            ",
"...            ",
"...            ",
"...            ",
"...            ",
"...            ",
"...            ",
"...            ",
"...............",
"...............",
"..............."};
