/* XPM */
static char * close_pressed_xpm[] = {
"24 21 95 2",
"  	c None",
". 	c #0E72A6",
"+ 	c #116A98",
"@ 	c #0E70A3",
"# 	c #116A99",
"$ 	c #0F6EA0",
"% 	c #116B9B",
"& 	c #0F6D9D",
"* 	c #106C9D",
"= 	c #106B9A",
"- 	c #0F6DA0",
"; 	c #116997",
"> 	c #0E6FA2",
", 	c #126895",
"' 	c #0E70A5",
") 	c #3285B2",
"! 	c #3587B3",
"~ 	c #0F71A5",
"{ 	c #2E83B1",
"] 	c #3185B2",
"^ 	c #116895",
"/ 	c #0D72A7",
"( 	c #3388B5",
"_ 	c #FFFFFF",
": 	c #86B9D3",
"< 	c #529AC0",
"[ 	c #0E73A7",
"} 	c #559CC1",
"| 	c #86B8D3",
"1 	c #3086B4",
"2 	c #116896",
"3 	c #0C73AA",
"4 	c #2A84B4",
"5 	c #85B9D4",
"6 	c #84B8D4",
"7 	c #529BC2",
"8 	c #539CC3",
"9 	c #83B8D4",
"0 	c #2682B3",
"a 	c #0C74AC",
"b 	c #0D75AC",
"c 	c #529CC4",
"d 	c #84B9D5",
"e 	c #4F9AC3",
"f 	c #0B76AF",
"g 	c #0C77AF",
"h 	c #519DC6",
"i 	c #84BAD7",
"j 	c #509DC6",
"k 	c #0A77B1",
"l 	c #0B78B1",
"m 	c #519EC8",
"n 	c #83BAD8",
"o 	c #82BAD7",
"p 	c #509EC7",
"q 	c #116998",
"r 	c #0A79B4",
"s 	c #0B7AB4",
"t 	c #53A1CA",
"u 	c #82BBD9",
"v 	c #83BBD9",
"w 	c #81BAD8",
"x 	c #509FC9",
"y 	c #097AB6",
"z 	c #318FC2",
"A 	c #84BCDA",
"B 	c #82BBDA",
"C 	c #4EA0CB",
"D 	c #4FA0CB",
"E 	c #81BBD9",
"F 	c #2E8EC1",
"G 	c #106A99",
"H 	c #087CB9",
"I 	c #3091C4",
"J 	c #84BEDC",
"K 	c #4CA0CC",
"L 	c #097DB9",
"M 	c #4FA2CD",
"N 	c #83BDDC",
"O 	c #2D90C3",
"P 	c #106A9A",
"Q 	c #087DBB",
"R 	c #0A7EBC",
"S 	c #2E91C5",
"T 	c #2B8FC5",
"U 	c #097EBB",
"V 	c #2D90C5",
"W 	c #077EBE",
"X 	c #106B9B",
"Y 	c #0680C0",
"Z 	c #106B9C",
"` 	c #0681C3",
" .	c #106C9C",
"..	c #0583C5",
"+.	c #0484C8",
". + + + + + + + + + + + + + + + + + + + + + + . ",
"@ # # # # # # # # # # # # # # # # # # # # # # @ ",
"$ % % % % % % % % % % % % % % % % % % % % % % $ ",
"& * * * * * * * * * * * * * * * * * * * * * * & ",
"= - - - - - - - - - - - - - - - - - - - - - - = ",
"; > > > > > > > > > > > > > > > > > > > > > > ; ",
", ' ' ' ' ' ' ' ' ) ! ~ ' ' ~ { ] ' ' ' ' ' ' , ",
"^ / / / / / / / ( _ : < / [ } | _ 1 / / / / / ^ ",
"2 3 3 3 3 3 3 3 4 5 _ 6 7 8 9 _ 5 0 3 3 3 3 3 2 ",
"2 a a a a a a a b c d _ d d _ d e a a a a a a 2 ",
"; f f f f f f f f g h i _ _ i j f f f f f f f ; ",
"; k k k k k k k k l m n _ _ o p l k k k k k k ; ",
"q r r r r r r r s t u _ v u _ w x s r r r r r q ",
"# y y y y y y y z A _ B C D E _ A F y y y y y # ",
"G H H H H H H H I _ J K H L M N _ O H H H H H G ",
"P Q Q Q Q Q Q Q R S T Q Q Q U V V U Q Q Q Q Q P ",
"= W W W W W W W W W W W W W W W W W W W W W W = ",
"X Y Y Y Y Y Y Y Y Y Y Y Y Y Y Y Y Y Y Y Y Y Y X ",
"Z ` ` ` ` ` ` ` ` ` ` ` ` ` ` ` ` ` ` ` ` ` ` Z ",
" ............................................. .",
"* +.+.+.+.+.+.+.+.+.+.+.+.+.+.+.+.+.+.+.+.+.+.* "};
