/* XPM */
static char * close_prelight_xpm[] = {
"24 21 127 2",
"  	c None",
". 	c #18B0FF",
"+ 	c #4EC2FF",
"@ 	c #0093E0",
"# 	c #16ADFC",
"$ 	c #48BEFD",
"% 	c #0190DA",
"& 	c #14ABF9",
"* 	c #43BBFB",
"= 	c #028DD5",
"- 	c #13A9F7",
"; 	c #3EB8F9",
"> 	c #038AD0",
", 	c #11A6F4",
"' 	c #39B5F7",
") 	c #0587CB",
"! 	c #10A4F1",
"~ 	c #34B2F5",
"{ 	c #52BDF6",
"] 	c #55BEF7",
"^ 	c #35B2F5",
"/ 	c #4FBCF6",
"( 	c #51BDF6",
"_ 	c #0684C6",
": 	c #0EA2EF",
"< 	c #2EAFF3",
"[ 	c #4FBCF5",
"} 	c #99D8F9",
"| 	c #97D7F9",
"1 	c #6AC6F6",
"2 	c #2FAFF3",
"3 	c #6CC7F7",
"4 	c #96D7F9",
"5 	c #4CBBF5",
"6 	c #0781C1",
"7 	c #0C9FEC",
"8 	c #29ACF1",
"9 	c #43B6F3",
"0 	c #94D5F8",
"a 	c #71C8F6",
"b 	c #93D5F8",
"c 	c #66C4F5",
"d 	c #67C4F5",
"e 	c #92D5F8",
"f 	c #40B5F2",
"g 	c #087EBC",
"h 	c #0B9DE9",
"i 	c #24A9EF",
"j 	c #25A9EF",
"k 	c #63C2F4",
"l 	c #90D3F7",
"m 	c #6EC6F4",
"n 	c #60C1F3",
"o 	c #0A7BB6",
"p 	c #099BE7",
"q 	c #1FA6ED",
"r 	c #20A6ED",
"s 	c #5FBFF2",
"t 	c #8ED2F6",
"u 	c #6BC4F3",
"v 	c #5EBFF2",
"w 	c #0B78B1",
"x 	c #0898E4",
"y 	c #1AA3EB",
"z 	c #1BA3EB",
"A 	c #5CBEF1",
"B 	c #8BD0F5",
"C 	c #67C2F2",
"D 	c #8AD0F5",
"E 	c #5CBDF1",
"F 	c #0C75AC",
"G 	c #0696E1",
"H 	c #14A0E9",
"I 	c #15A0E9",
"J 	c #5ABCF0",
"K 	c #87CFF4",
"L 	c #62C0F0",
"M 	c #88CFF4",
"N 	c #86CEF4",
"O 	c #57BBEF",
"P 	c #0D72A7",
"Q 	c #0494DF",
"R 	c #0F9DE7",
"S 	c #36ADEB",
"T 	c #87CEF3",
"U 	c #5FBEEF",
"V 	c #85CDF3",
"W 	c #53B9EE",
"X 	c #54B9EE",
"Y 	c #84CDF3",
"Z 	c #33ACEB",
"` 	c #0F6FA2",
" .	c #0391DC",
"..	c #0A9AE5",
"+.	c #31AAE9",
"@.	c #87CDF2",
"#.	c #85CDF2",
"$.	c #4DB6EC",
"%.	c #0B9AE5",
"&.	c #50B7EC",
"*.	c #84CCF2",
"=.	c #2FA9E9",
"-.	c #106C9D",
";.	c #018FD9",
">.	c #0597E3",
",.	c #0798E3",
"'.	c #2BA7E7",
").	c #28A6E7",
"!.	c #0697E3",
"~.	c #2AA6E7",
"{.	c #116998",
"].	c #008DD7",
"^.	c #0094E2",
"/.	c #136793",
"(.	c #008FDA",
"_.	c #0096E5",
":.	c #126894",
"<.	c #0091DE",
"[.	c #0098E9",
"}.	c #126996",
"|.	c #0093E1",
"1.	c #009AEC",
"2.	c #116A98",
"3.	c #009DF0",
"4.	c #116B9A",
"5.	c #009FF4",
"6.	c #106C9C",
". + + + + + + + + + + + + + + + + + + + + + + @ ",
"# $ $ $ $ $ $ $ $ $ $ $ $ $ $ $ $ $ $ $ $ $ $ % ",
"& * * * * * * * * * * * * * * * * * * * * * * = ",
"- ; ; ; ; ; ; ; ; ; ; ; ; ; ; ; ; ; ; ; ; ; ; > ",
", ' ' ' ' ' ' ' ' ' ' ' ' ' ' ' ' ' ' ' ' ' ' ) ",
"! ~ ~ ~ ~ ~ ~ ~ { ] ^ ~ ~ ^ / ( ~ ~ ~ ~ ~ ~ ~ _ ",
": < < < < < < [ } | 1 < 2 3 4 } 5 < < < < < < 6 ",
"7 8 8 8 8 8 8 9 0 a b c d e a 0 f 8 8 8 8 8 8 g ",
"h i i i i i i j k l m l l m l n i i i i i i i o ",
"p q q q q q q q r s t u u t v q q q q q q q q w ",
"x y y y y y y y z A B C C D E z y y y y y y y F ",
"G H H H H H H I J K L M K L N O I H H H H H H P ",
"Q R R R R R R S T U V W X Y U T Z R R R R R R ` ",
" .............+.@.#.$...%.&.*.@.=.............-.",
";.>.>.>.>.>.>.,.'.).>.>.>.!.~.~.!.>.>.>.>.>.>.{.",
"].^.^.^.^.^.^.^.^.^.^.^.^.^.^.^.^.^.^.^.^.^.^./.",
"(._._._._._._._._._._._._._._._._._._._._._._.:.",
"<.[.[.[.[.[.[.[.[.[.[.[.[.[.[.[.[.[.[.[.[.[.[.}.",
"|.1.1.1.1.1.1.1.1.1.1.1.1.1.1.1.1.1.1.1.1.1.1.2.",
"_.3.3.3.3.3.3.3.3.3.3.3.3.3.3.3.3.3.3.3.3.3.3.4.",
"[.5.5.5.5.5.5.5.5.5.5.5.5.5.5.5.5.5.5.5.5.5.5.6."};
