/* XPM */
static char * close_pressed_xpm[] = {
"24 21 102 2",
"  	c None",
". 	c #0E72A6",
"+ 	c #116A98",
"@ 	c #0E70A3",
"# 	c #116A99",
"$ 	c #0F6EA0",
"% 	c #116B9B",
"& 	c #0F6D9D",
"* 	c #106C9D",
"= 	c #106B9A",
"- 	c #0F6DA0",
"; 	c #116997",
"> 	c #0E6FA2",
", 	c #126895",
"' 	c #0E70A5",
") 	c #3285B2",
"! 	c #3587B3",
"~ 	c #0F71A5",
"{ 	c #2E83B1",
"] 	c #3185B2",
"^ 	c #116895",
"/ 	c #0D72A7",
"( 	c #3388B5",
"_ 	c #88BAD4",
": 	c #86B9D3",
"< 	c #529AC0",
"[ 	c #0E73A7",
"} 	c #559CC1",
"| 	c #86B8D3",
"1 	c #3086B4",
"2 	c #116896",
"3 	c #0C73AA",
"4 	c #2A84B4",
"5 	c #85B9D4",
"6 	c #5EA2C7",
"7 	c #84B8D4",
"8 	c #529BC2",
"9 	c #539CC3",
"0 	c #83B8D4",
"a 	c #2682B3",
"b 	c #0C74AC",
"c 	c #0D75AC",
"d 	c #529CC4",
"e 	c #84B9D5",
"f 	c #5EA3C8",
"g 	c #4F9AC3",
"h 	c #0B76AF",
"i 	c #0C77AF",
"j 	c #519DC6",
"k 	c #84BAD7",
"l 	c #5DA4CA",
"m 	c #509DC6",
"n 	c #0A77B1",
"o 	c #0B78B1",
"p 	c #519EC8",
"q 	c #83BAD8",
"r 	c #5DA5CB",
"s 	c #82BAD7",
"t 	c #509EC7",
"u 	c #116998",
"v 	c #0A79B4",
"w 	c #0B7AB4",
"x 	c #53A1CA",
"y 	c #82BBD9",
"z 	c #5CA6CD",
"A 	c #83BBD9",
"B 	c #81BAD8",
"C 	c #509FC9",
"D 	c #097AB6",
"E 	c #318FC2",
"F 	c #84BCDA",
"G 	c #5BA6CE",
"H 	c #82BBDA",
"I 	c #4EA0CB",
"J 	c #4FA0CB",
"K 	c #81BBD9",
"L 	c #2E8EC1",
"M 	c #106A99",
"N 	c #087CB9",
"O 	c #3091C4",
"P 	c #86BFDD",
"Q 	c #84BEDC",
"R 	c #4CA0CC",
"S 	c #097DB9",
"T 	c #4FA2CD",
"U 	c #83BDDC",
"V 	c #2D90C3",
"W 	c #106A9A",
"X 	c #087DBB",
"Y 	c #0A7EBC",
"Z 	c #2E91C5",
"` 	c #2B8FC5",
" .	c #097EBB",
"..	c #2D90C5",
"+.	c #077EBE",
"@.	c #106B9B",
"#.	c #0680C0",
"$.	c #106B9C",
"%.	c #0681C3",
"&.	c #106C9C",
"*.	c #0583C5",
"=.	c #0484C8",
". + + + + + + + + + + + + + + + + + + + + + + . ",
"@ # # # # # # # # # # # # # # # # # # # # # # @ ",
"$ % % % % % % % % % % % % % % % % % % % % % % $ ",
"& * * * * * * * * * * * * * * * * * * * * * * & ",
"= - - - - - - - - - - - - - - - - - - - - - - = ",
"; > > > > > > > > > > > > > > > > > > > > > > ; ",
", ' ' ' ' ' ' ' ' ) ! ~ ' ' ~ { ] ' ' ' ' ' ' , ",
"^ / / / / / / / ( _ : < / [ } | _ 1 / / / / / ^ ",
"2 3 3 3 3 3 3 3 4 5 6 7 8 9 0 6 5 a 3 3 3 3 3 2 ",
"2 b b b b b b b c d e f e e f e g b b b b b b 2 ",
"; h h h h h h h h i j k l l k m h h h h h h h ; ",
"; n n n n n n n n o p q r r s t o n n n n n n ; ",
"u v v v v v v v w x y z A y z B C w v v v v v u ",
"# D D D D D D D E F G H I J K G F L D D D D D # ",
"M N N N N N N N O P Q R N S T U P V N N N N N M ",
"W X X X X X X X Y Z ` X X X  ..... .X X X X X W ",
"= +.+.+.+.+.+.+.+.+.+.+.+.+.+.+.+.+.+.+.+.+.+.= ",
"@.#.#.#.#.#.#.#.#.#.#.#.#.#.#.#.#.#.#.#.#.#.#.@.",
"$.%.%.%.%.%.%.%.%.%.%.%.%.%.%.%.%.%.%.%.%.%.%.$.",
"&.*.*.*.*.*.*.*.*.*.*.*.*.*.*.*.*.*.*.*.*.*.*.&.",
"* =.=.=.=.=.=.=.=.=.=.=.=.=.=.=.=.=.=.=.=.=.=.* "};
