/* XPM */
static char * close_prelight_xpm[] = {
"24 21 124 2",
"  	c None",
". 	c #18B0FF",
"+ 	c #4EC2FF",
"@ 	c #0093E0",
"# 	c #16ADFC",
"$ 	c #48BEFD",
"% 	c #0190DA",
"& 	c #14ABF9",
"* 	c #43BBFB",
"= 	c #028DD5",
"- 	c #13A9F7",
"; 	c #3EB8F9",
"> 	c #038AD0",
", 	c #11A6F4",
"' 	c #39B5F7",
") 	c #0587CB",
"! 	c #10A4F1",
"~ 	c #34B2F5",
"{ 	c #52BDF6",
"] 	c #55BEF7",
"^ 	c #35B2F5",
"/ 	c #4FBCF6",
"( 	c #51BDF6",
"_ 	c #0684C6",
": 	c #0EA2EF",
"< 	c #2EAFF3",
"[ 	c #4FBCF5",
"} 	c #FFFFFF",
"| 	c #97D7F9",
"1 	c #6AC6F6",
"2 	c #2FAFF3",
"3 	c #6CC7F7",
"4 	c #96D7F9",
"5 	c #4CBBF5",
"6 	c #0781C1",
"7 	c #0C9FEC",
"8 	c #29ACF1",
"9 	c #43B6F3",
"0 	c #C6E8FA",
"a 	c #93D5F8",
"b 	c #66C4F5",
"c 	c #67C4F5",
"d 	c #92D5F8",
"e 	c #94D5F8",
"f 	c #40B5F2",
"g 	c #087EBC",
"h 	c #0B9DE9",
"i 	c #24A9EF",
"j 	c #25A9EF",
"k 	c #63C2F4",
"l 	c #90D3F7",
"m 	c #60C1F3",
"n 	c #0A7BB6",
"o 	c #099BE7",
"p 	c #1FA6ED",
"q 	c #20A6ED",
"r 	c #5FBFF2",
"s 	c #8ED2F6",
"t 	c #FAFCFE",
"u 	c #FBFDFE",
"v 	c #5EBFF2",
"w 	c #0B78B1",
"x 	c #0898E4",
"y 	c #1AA3EB",
"z 	c #1BA3EB",
"A 	c #5CBEF1",
"B 	c #8BD0F5",
"C 	c #F6FBFE",
"D 	c #8AD0F5",
"E 	c #5CBDF1",
"F 	c #0C75AC",
"G 	c #0696E1",
"H 	c #14A0E9",
"I 	c #15A0E9",
"J 	c #5ABCF0",
"K 	c #87CFF4",
"L 	c #88CFF4",
"M 	c #86CEF4",
"N 	c #57BBEF",
"O 	c #0D72A7",
"P 	c #0494DF",
"Q 	c #0F9DE7",
"R 	c #36ADEB",
"S 	c #87CEF3",
"T 	c #85CDF3",
"U 	c #53B9EE",
"V 	c #54B9EE",
"W 	c #84CDF3",
"X 	c #33ACEB",
"Y 	c #0F6FA2",
"Z 	c #0391DC",
"` 	c #0A9AE5",
" .	c #31AAE9",
"..	c #85CDF2",
"+.	c #4DB6EC",
"@.	c #0B9AE5",
"#.	c #50B7EC",
"$.	c #84CCF2",
"%.	c #2FA9E9",
"&.	c #106C9D",
"*.	c #018FD9",
"=.	c #0597E3",
"-.	c #0798E3",
";.	c #2BA7E7",
">.	c #28A6E7",
",.	c #0697E3",
"'.	c #2AA6E7",
").	c #116998",
"!.	c #008DD7",
"~.	c #0094E2",
"{.	c #136793",
"].	c #008FDA",
"^.	c #0096E5",
"/.	c #126894",
"(.	c #0091DE",
"_.	c #0098E9",
":.	c #126996",
"<.	c #0093E1",
"[.	c #009AEC",
"}.	c #116A98",
"|.	c #009DF0",
"1.	c #116B9A",
"2.	c #009FF4",
"3.	c #106C9C",
". + + + + + + + + + + + + + + + + + + + + + + @ ",
"# $ $ $ $ $ $ $ $ $ $ $ $ $ $ $ $ $ $ $ $ $ $ % ",
"& * * * * * * * * * * * * * * * * * * * * * * = ",
"- ; ; ; ; ; ; ; ; ; ; ; ; ; ; ; ; ; ; ; ; ; ; > ",
", ' ' ' ' ' ' ' ' ' ' ' ' ' ' ' ' ' ' ' ' ' ' ) ",
"! ~ ~ ~ ~ ~ ~ ~ { ] ^ ~ ~ ^ / ( ~ ~ ~ ~ ~ ~ ~ _ ",
": < < < < < < [ } | 1 < 2 3 4 } 5 < < < < < < 6 ",
"7 8 8 8 8 8 8 9 0 } a b c d } e f 8 8 8 8 8 8 g ",
"h i i i i i i j k l } l l } l m i i i i i i i n ",
"o p p p p p p p q r s t u s v p p p p p p p p w ",
"x y y y y y y y z A B } C D E z y y y y y y y F ",
"G H H H H H H I J K } L K } M N I H H H H H H O ",
"P Q Q Q Q Q Q R S } T U V W } S X Q Q Q Q Q Q Y ",
"Z ` ` ` ` ` `  .} ..+.` @.#.$.} %.` ` ` ` ` ` &.",
"*.=.=.=.=.=.=.-.;.>.=.=.=.,.'.'.,.=.=.=.=.=.=.).",
"!.~.~.~.~.~.~.~.~.~.~.~.~.~.~.~.~.~.~.~.~.~.~.{.",
"].^.^.^.^.^.^.^.^.^.^.^.^.^.^.^.^.^.^.^.^.^.^./.",
"(._._._._._._._._._._._._._._._._._._._._._._.:.",
"<.[.[.[.[.[.[.[.[.[.[.[.[.[.[.[.[.[.[.[.[.[.[.}.",
"^.|.|.|.|.|.|.|.|.|.|.|.|.|.|.|.|.|.|.|.|.|.|.1.",
"_.2.2.2.2.2.2.2.2.2.2.2.2.2.2.2.2.2.2.2.2.2.2.3."};
