/* XPM */
static char * close_inactive_xpm[] = {
"24 21 77 1",
" 	c None",
".	c #E4E0E0",
"+	c #DCD7D7",
"@	c #D1CBCB",
"#	c #E2DEDE",
"$	c #DAD5D5",
"%	c #CFC9C9",
"&	c #E1DCDC",
"*	c #D9D3D3",
"=	c #CEC8C8",
"-	c #DFDBDB",
";	c #D7D2D2",
">	c #CDC7C7",
",	c #DED9D9",
"'	c #D6D0D0",
")	c #CCC5C5",
"!	c #DCD8D8",
"~	c #D4CFCF",
"{	c #D9D4D4",
"]	c #D9D5D5",
"^	c #D8D4D4",
"/	c #CBC4C4",
"(	c #DBD6D6",
"_	c #D3CDCD",
":	c #D8D3D3",
"<	c #FFFFFF",
"[	c #E3E0E0",
"}	c #DDD8D8",
"|	c #D8D2D2",
"1	c #CAC3C3",
"2	c #DAD4D4",
"3	c #D2CCCC",
"4	c #D6D1D1",
"5	c #E3DFDF",
"6	c #E2DFDF",
"7	c #E8E5E5",
"8	c #C9C2C2",
"9	c #D0CACA",
"0	c #E1DEDE",
"a	c #C7C0C0",
"b	c #D7D1D1",
"c	c #CFC8C8",
"d	c #FDFDFD",
"e	c #FEFDFD",
"f	c #C6BFBF",
"g	c #D5D0D0",
"h	c #DFDCDC",
"i	c #E5E2E2",
"j	c #C5BEBE",
"k	c #D4CECE",
"l	c #DFDADA",
"m	c #DEDADA",
"n	c #C4BDBD",
"o	c #D3CCCC",
"p	c #CAC4C4",
"q	c #D0CBCB",
"r	c #E3E1E1",
"s	c #DDD9D9",
"t	c #C3BBBB",
"u	c #F8F7F7",
"v	c #C2BABA",
"w	c #D0C9C9",
"x	c #C8C1C1",
"y	c #CEC7C7",
"z	c #C1B9B9",
"A	c #BFB7B7",
"B	c #CDC6C6",
"C	c #C5BDBD",
"D	c #BEB6B6",
"E	c #CCC4C4",
"F	c #C3BCBC",
"G	c #BDB5B5",
"H	c #BCB4B4",
"I	c #C9C1C1",
"J	c #C0B9B9",
"K	c #BBB2B2",
"L	c #BAB1B1",
".++++++++++++++++++++++@",
"#$$$$$$$$$$$$$$$$$$$$$$%",
"&**********************=",
"-;;;;;;;;;;;;;;;;;;;;;;>",
",'''''''''''''''''''''')",
"!~~~~~~~{]~~~~^{~~~~~~~/",
"(______:<[!__}[<|______1",
"233333345<5++6<7'3333338",
":9999999$0<00<0$9999999a",
"bcccccccc{&de&*ccccccccf",
"g>>>>>>>>:hd<i:>>>>>>>>j",
"k)))))));l<ll<mb)))))))n",
"oppppppqm<rggs<m9ppppppt",
"@888888%<sk88~su%888888v",
"wxxxxxxx=yxxxx=;xxxxxxxz",
"=ffffffffffffffffffffffA",
"BCCCCCCCCCCCCCCCCCCCCCCD",
"EFFFFFFFFFFFFFFFFFFFFFFG",
"1vvvvvvvvvvvvvvvvvvvvvvH",
"IJJJJJJJJJJJJJJJJJJJJJJK",
"aAAAAAAAAAAAAAAAAAAAAAAL"};
