/* XPM */
static char * close_inactive_xpm[] = {
"24 21 72 1",
" 	c None",
".	c #E4E0E0",
"+	c #DCD7D7",
"@	c #D1CBCB",
"#	c #E2DEDE",
"$	c #DAD5D5",
"%	c #CFC9C9",
"&	c #E1DCDC",
"*	c #D9D3D3",
"=	c #CEC8C8",
"-	c #DFDBDB",
";	c #D7D2D2",
">	c #CDC7C7",
",	c #DED9D9",
"'	c #D6D0D0",
")	c #CCC5C5",
"!	c #DCD8D8",
"~	c #D4CFCF",
"{	c #D9D4D4",
"]	c #D9D5D5",
"^	c #D8D4D4",
"/	c #CBC4C4",
"(	c #DBD6D6",
"_	c #D3CDCD",
":	c #D8D3D3",
"<	c #E3E0E0",
"[	c #DDD8D8",
"}	c #D8D2D2",
"|	c #CAC3C3",
"1	c #DAD4D4",
"2	c #D2CCCC",
"3	c #D6D1D1",
"4	c #E3DFDF",
"5	c #DDD9D9",
"6	c #E2DFDF",
"7	c #C9C2C2",
"8	c #D0CACA",
"9	c #E1DEDE",
"0	c #C7C0C0",
"a	c #D7D1D1",
"b	c #CFC8C8",
"c	c #C6BFBF",
"d	c #D5D0D0",
"e	c #DFDCDC",
"f	c #C5BEBE",
"g	c #D4CECE",
"h	c #DFDADA",
"i	c #DEDADA",
"j	c #C4BDBD",
"k	c #D3CCCC",
"l	c #CAC4C4",
"m	c #D0CBCB",
"n	c #D7D3D3",
"o	c #DDDADA",
"p	c #C3BBBB",
"q	c #C2BABA",
"r	c #D0C9C9",
"s	c #C8C1C1",
"t	c #CEC7C7",
"u	c #C1B9B9",
"v	c #BFB7B7",
"w	c #CDC6C6",
"x	c #C5BDBD",
"y	c #BEB6B6",
"z	c #CCC4C4",
"A	c #C3BCBC",
"B	c #BDB5B5",
"C	c #BCB4B4",
"D	c #C9C1C1",
"E	c #C0B9B9",
"F	c #BBB2B2",
"G	c #BAB1B1",
".++++++++++++++++++++++@",
"#$$$$$$$$$$$$$$$$$$$$$$%",
"&**********************=",
"-;;;;;;;;;;;;;;;;;;;;;;>",
",'''''''''''''''''''''')",
"!~~~~~~~{]~~~~^{~~~~~~~/",
"(______:.<!__[<.}______|",
"12222223454++654'2222227",
":8888888$9+99+9$88888880",
"abbbbbbbb{&((&*bbbbbbbbc",
"d>>>>>>>>:e$$-:>>>>>>>>f",
"g)))))));h*hh*ia)))))))j",
"kllllllminodd5ni8llllllp",
"@777777%,5g77~5,%777777q",
"rsssssss=tssss==sssssssu",
"=ccccccccccccccccccccccv",
"wxxxxxxxxxxxxxxxxxxxxxxy",
"zAAAAAAAAAAAAAAAAAAAAAAB",
"|qqqqqqqqqqqqqqqqqqqqqqC",
"DEEEEEEEEEEEEEEEEEEEEEEF",
"0vvvvvvvvvvvvvvvvvvvvvvG"};
