/* XPM */
static char * hide_active_xpm[] = {
"24 21 78 1",
" 	c None",
".	c #2EB7FF",
"+	c #0683C4",
"@	c #26B4FF",
"#	c #2BB3FA",
"$	c #0780BE",
"%	c #1FB2FF",
"&	c #29AFF5",
"*	c #087DB9",
"=	c #18AFFF",
"-	c #26ABF0",
";	c #097AB4",
">	c #11ADFF",
",	c #24A7EC",
"'	c #0A77AF",
")	c #0AAAFF",
"!	c #21A3E7",
"~	c #0B74AA",
"{	c #03A8FF",
"]	c #1F9FE2",
"^	c #0C71A5",
"/	c #03A5FA",
"(	c #1C9BDD",
"_	c #0D6EA0",
":	c #03A2F5",
"<	c #1A97D9",
"[	c #0F6B9B",
"}	c #049FF0",
"|	c #1793D4",
"1	c #106896",
"2	c #049CEC",
"3	c #158FCF",
"4	c #116591",
"5	c #0499E7",
"6	c #128BCA",
"7	c #12628C",
"8	c #0596E2",
"9	c #1087C6",
"0	c #3B9DD0",
"a	c #72B8DD",
"b	c #75BADE",
"c	c #71B8DD",
"d	c #399CD0",
"e	c #135F87",
"f	c #0593DD",
"g	c #0D83C1",
"h	c #79BADD",
"i	c #75B8DC",
"j	c #6DB4DA",
"k	c #78BADC",
"l	c #73B8DB",
"m	c #145C82",
"n	c #0690D9",
"o	c #0B7FBC",
"p	c #3997C9",
"q	c #73B6D9",
"r	c #77B8DA",
"s	c #72B5D8",
"t	c #3796C8",
"u	c #15597D",
"v	c #068DD4",
"w	c #097CB8",
"x	c #175778",
"y	c #068ACF",
"z	c #097BB7",
"A	c #165879",
"B	c #0787CA",
"C	c #097BB6",
"D	c #16597B",
"E	c #0784C6",
"F	c #097AB5",
"G	c #165A7D",
"H	c #0881C1",
"I	c #0A7AB4",
"J	c #165B7F",
"K	c #087EBC",
"L	c #0A79B3",
"M	c #165C81",
".......................+",
"@######################$",
"%&&&&&&&&&&&&&&&&&&&&&&*",
"=----------------------;",
">,,,,,,,,,,,,,,,,,,,,,,'",
")!!!!!!!!!!!!!!!!!!!!!!~",
"{]]]]]]]]]]]]]]]]]]]]]]^",
"/((((((((((((((((((((((_",
":<<<<<<<<<<<<<<<<<<<<<<[",
"}||||||||||||||||||||||1",
"233333333333333333333334",
"566666666666666666666667",
"899999990abbbbbcd999999e",
"fggggggghijjjjjklggggggm",
"nooooooopqrrrrrstoooooou",
"vwwwwwwwwwwwwwwwwwwwwwwx",
"yzzzzzzzzzzzzzzzzzzzzzzA",
"BCCCCCCCCCCCCCCCCCCCCCCD",
"EFFFFFFFFFFFFFFFFFFFFFFG",
"HIIIIIIIIIIIIIIIIIIIIIIJ",
"KLLLLLLLLLLLLLLLLLLLLLLM"};
