/* XPM */
static char * hide_prelight_xpm[] = {
"24 21 77 1",
" 	c None",
".	c #18B0FF",
"+	c #4EC2FF",
"@	c #0093E0",
"#	c #16ADFC",
"$	c #48BEFD",
"%	c #0190DA",
"&	c #14ABF9",
"*	c #43BBFB",
"=	c #028DD5",
"-	c #13A9F7",
";	c #3EB8F9",
">	c #038AD0",
",	c #11A6F4",
"'	c #39B5F7",
")	c #0587CB",
"!	c #10A4F1",
"~	c #34B2F5",
"{	c #0684C6",
"]	c #0EA2EF",
"^	c #2EAFF3",
"/	c #0781C1",
"(	c #0C9FEC",
"_	c #29ACF1",
":	c #087EBC",
"<	c #0B9DE9",
"[	c #24A9EF",
"}	c #0A7BB6",
"|	c #099BE7",
"1	c #1FA6ED",
"2	c #0B78B1",
"3	c #0898E4",
"4	c #1AA3EB",
"5	c #0C75AC",
"6	c #0696E1",
"7	c #14A0E9",
"8	c #0D72A7",
"9	c #0494DF",
"0	c #0F9DE7",
"a	c #3AAFEB",
"b	c #72C5F1",
"c	c #75C7F1",
"d	c #71C5F1",
"e	c #38AEEB",
"f	c #0F6FA2",
"g	c #0391DC",
"h	c #0A9AE5",
"i	c #78C7F1",
"j	c #74C6F0",
"k	c #6BC2EF",
"l	c #77C7F1",
"m	c #72C5F0",
"n	c #106C9D",
"o	c #018FD9",
"p	c #0597E3",
"q	c #34ABE8",
"r	c #70C3EF",
"s	c #74C5EF",
"t	c #6FC3EF",
"u	c #32AAE8",
"v	c #116998",
"w	c #008DD7",
"x	c #0094E2",
"y	c #136793",
"z	c #008FDA",
"A	c #0096E5",
"B	c #126894",
"C	c #0091DE",
"D	c #0098E9",
"E	c #126996",
"F	c #0093E1",
"G	c #009AEC",
"H	c #116A98",
"I	c #009DF0",
"J	c #116B9A",
"K	c #009FF4",
"L	c #106C9C",
".++++++++++++++++++++++@",
"#$$$$$$$$$$$$$$$$$$$$$$%",
"&**********************=",
"-;;;;;;;;;;;;;;;;;;;;;;>",
",'''''''''''''''''''''')",
"!~~~~~~~~~~~~~~~~~~~~~~{",
"]^^^^^^^^^^^^^^^^^^^^^^/",
"(______________________:",
"<[[[[[[[[[[[[[[[[[[[[[[}",
"|11111111111111111111112",
"344444444444444444444445",
"677777777777777777777778",
"90000000abcccccde000000f",
"ghhhhhhhijkkkkklmhhhhhhn",
"opppppppqrssssstuppppppv",
"wxxxxxxxxxxxxxxxxxxxxxxy",
"zAAAAAAAAAAAAAAAAAAAAAAB",
"CDDDDDDDDDDDDDDDDDDDDDDE",
"FGGGGGGGGGGGGGGGGGGGGGGH",
"AIIIIIIIIIIIIIIIIIIIIIIJ",
"DKKKKKKKKKKKKKKKKKKKKKKL"};
