/* XPM */
static char * hide_pressed_xpm[] = {
"24 21 48 1",
" 	c None",
".	c #0E72A6",
"+	c #116A98",
"@	c #0E70A3",
"#	c #116A99",
"$	c #0F6EA0",
"%	c #116B9B",
"&	c #0F6D9D",
"*	c #106C9D",
"=	c #106B9A",
"-	c #0F6DA0",
";	c #116997",
">	c #0E6FA2",
",	c #126895",
"'	c #0E70A5",
")	c #116895",
"!	c #0D72A7",
"~	c #116896",
"{	c #0C73AA",
"]	c #0C74AC",
"^	c #0B76AF",
"/	c #0A77B1",
"(	c #116998",
"_	c #0A79B4",
":	c #097AB6",
"<	c #3592C3",
"[	c #6EB1D4",
"}	c #71B2D5",
"|	c #6DB0D4",
"1	c #3391C3",
"2	c #106A99",
"3	c #087CB9",
"4	c #FFFFFF",
"5	c #106A9A",
"6	c #087DBB",
"7	c #3695C8",
"8	c #72B5D8",
"9	c #75B7D9",
"0	c #71B4D8",
"a	c #3594C7",
"b	c #077EBE",
"c	c #106B9B",
"d	c #0680C0",
"e	c #106B9C",
"f	c #0681C3",
"g	c #106C9C",
"h	c #0583C5",
"i	c #0484C8",
".++++++++++++++++++++++.",
"@######################@",
"$%%%%%%%%%%%%%%%%%%%%%%$",
"&**********************&",
"=----------------------=",
";>>>>>>>>>>>>>>>>>>>>>>;",
",'''''''''''''''''''''',",
")!!!!!!!!!!!!!!!!!!!!!!)",
"~{{{{{{{{{{{{{{{{{{{{{{~",
"~]]]]]]]]]]]]]]]]]]]]]]~",
";^^^^^^^^^^^^^^^^^^^^^^;",
";//////////////////////;",
"(______________________(",
"#::::::::<[}}}}}|1:::::#",
"233333333444444444333332",
"56666666678999990a666665",
"=bbbbbbbbbbbbbbbbbbbbbb=",
"cddddddddddddddddddddddc",
"effffffffffffffffffffffe",
"ghhhhhhhhhhhhhhhhhhhhhhg",
"*iiiiiiiiiiiiiiiiiiiiii*"};
