/* XPM */
static char * left_active_xpm[] = {
"3 32 3 1",
" 	c None",
".	c #14628A",
"+	c #14638D",
".++",
".++",
".++",
".++",
".++",
".++",
".++",
".++",
".++",
".++",
".++",
".++",
".++",
".++",
".++",
".++",
".++",
".++",
".++",
".++",
".++",
".++",
".++",
".++",
".++",
".++",
".++",
".++",
".++",
".++",
".++",
".++"};
