/* XPM */
static char * maximize_inactive_xpm[] = {
"24 21 61 1",
" 	c None",
".	c #E4E0E0",
"+	c #DCD7D7",
"@	c #D1CBCB",
"#	c #E2DEDE",
"$	c #DAD5D5",
"%	c #CFC9C9",
"&	c #E1DCDC",
"*	c #D9D3D3",
"=	c #CEC8C8",
"-	c #DFDBDB",
";	c #D7D2D2",
">	c #CDC7C7",
",	c #DED9D9",
"'	c #D6D0D0",
")	c #CCC5C5",
"!	c #DCD8D8",
"~	c #D4CFCF",
"{	c #CBC4C4",
"]	c #DBD6D6",
"^	c #D3CDCD",
"/	c #DAD4D4",
"(	c #CAC3C3",
"_	c #D2CCCC",
":	c #E0DCDC",
"<	c #E1DDDD",
"[	c #C9C2C2",
"}	c #D8D3D3",
"|	c #D0CACA",
"1	c #C7C0C0",
"2	c #D7D1D1",
"3	c #CFC8C8",
"4	c #DFDADA",
"5	c #DDD8D8",
"6	c #C6BFBF",
"7	c #D5D0D0",
"8	c #DDD9D9",
"9	c #DBD7D7",
"0	c #D9D5D5",
"a	c #C5BEBE",
"b	c #D4CECE",
"c	c #C4BDBD",
"d	c #D3CCCC",
"e	c #CAC4C4",
"f	c #C3BBBB",
"g	c #C2BABA",
"h	c #D0C9C9",
"i	c #C8C1C1",
"j	c #C1B9B9",
"k	c #BFB7B7",
"l	c #CDC6C6",
"m	c #C5BDBD",
"n	c #BEB6B6",
"o	c #CCC4C4",
"p	c #C3BCBC",
"q	c #BDB5B5",
"r	c #BCB4B4",
"s	c #C9C1C1",
"t	c #C0B9B9",
"u	c #BBB2B2",
"v	c #BAB1B1",
".++++++++++++++++++++++@",
"#$$$$$$$$$$$$$$$$$$$$$$%",
"&**********************=",
"-;;;;;;;;;;;;;;;;;;;;;;>",
",'''''''''''''''''''''')",
"!~~~~~~~~~~~~~~~~~~~~~~{",
"]^^^^^^^^^^;#/^^^^^^^^^(",
"/__________:<<_________[",
"}||||||||||:,:|||||||||1",
"23333333'4-#5#-4'3333336",
"7>>>>>>>-8990998->>>>>>a",
"b)))))))b8,:]:,8b))))))c",
"deeeeeeeeee!0!eeeeeeeeef",
"@[[[[[[[[[[]$][[[[[[[[[g",
"hiiiiiiiiii|9|iiiiiiiiij",
"=6666666666666666666666k",
"lmmmmmmmmmmmmmmmmmmmmmmn",
"oppppppppppppppppppppppq",
"(ggggggggggggggggggggggr",
"sttttttttttttttttttttttu",
"1kkkkkkkkkkkkkkkkkkkkkkv"};
