/* XPM */
static char * maximize_prelight_xpm[] = {
"24 21 80 1",
" 	c None",
".	c #18B0FF",
"+	c #4EC2FF",
"@	c #0093E0",
"#	c #16ADFC",
"$	c #48BEFD",
"%	c #0190DA",
"&	c #14ABF9",
"*	c #43BBFB",
"=	c #028DD5",
"-	c #13A9F7",
";	c #3EB8F9",
">	c #038AD0",
",	c #11A6F4",
"'	c #39B5F7",
")	c #0587CB",
"!	c #10A4F1",
"~	c #34B2F5",
"{	c #0684C6",
"]	c #0EA2EF",
"^	c #2EAFF3",
"/	c #4BBAF5",
"(	c #FFFFFF",
"_	c #58BFF5",
":	c #0781C1",
"<	c #0C9FEC",
"[	c #29ACF1",
"}	c #84CFF7",
"|	c #86D0F7",
"1	c #087EBC",
"2	c #0B9DE9",
"3	c #24A9EF",
"4	c #87D0F6",
"5	c #0A7BB6",
"6	c #099BE7",
"7	c #1FA6ED",
"8	c #4BB7F1",
"9	c #81CDF5",
"0	c #84CEF5",
"a	c #97D6F7",
"b	c #0B78B1",
"c	c #0898E4",
"d	c #1AA3EB",
"e	c #0C75AC",
"f	c #0696E1",
"g	c #14A0E9",
"h	c #45B4EE",
"i	c #7FCBF3",
"j	c #82CCF3",
"k	c #92D3F5",
"l	c #0D72A7",
"m	c #0494DF",
"n	c #0F9DE7",
"o	c #7BC9F2",
"p	c #0F6FA2",
"q	c #0391DC",
"r	c #0A9AE5",
"s	c #76C6F0",
"t	c #106C9D",
"u	c #018FD9",
"v	c #0597E3",
"w	c #37ACE9",
"x	c #38ACE9",
"y	c #116998",
"z	c #008DD7",
"A	c #0094E2",
"B	c #136793",
"C	c #008FDA",
"D	c #0096E5",
"E	c #126894",
"F	c #0091DE",
"G	c #0098E9",
"H	c #126996",
"I	c #0093E1",
"J	c #009AEC",
"K	c #116A98",
"L	c #009DF0",
"M	c #116B9A",
"N	c #009FF4",
"O	c #106C9C",
".++++++++++++++++++++++@",
"#$$$$$$$$$$$$$$$$$$$$$$%",
"&**********************=",
"-;;;;;;;;;;;;;;;;;;;;;;>",
",'''''''''''''''''''''')",
"!~~~~~~~~~~~~~~~~~~~~~~{",
"]^^^^^^^^^^/(_^^^^^^^^^:",
"<[[[[[[[[[[}(|[[[[[[[[[1",
"233333333334(43333333335",
"67777777890a(a098777777b",
"cddddddd(((((((((dddddde",
"fggggggghijk(kjihggggggl",
"mnnnnnnnnnno(onnnnnnnnnp",
"qrrrrrrrrrrs(srrrrrrrrrt",
"uvvvvvvvvvvw(xvvvvvvvvvy",
"zAAAAAAAAAAAAAAAAAAAAAAB",
"CDDDDDDDDDDDDDDDDDDDDDDE",
"FGGGGGGGGGGGGGGGGGGGGGGH",
"IJJJJJJJJJJJJJJJJJJJJJJK",
"DLLLLLLLLLLLLLLLLLLLLLLM",
"GNNNNNNNNNNNNNNNNNNNNNNO"};
