/* XPM */
static char * maximize_pressed_xpm[] = {
"24 21 55 1",
" 	c None",
".	c #0E72A6",
"+	c #116A98",
"@	c #0E70A3",
"#	c #116A99",
"$	c #0F6EA0",
"%	c #116B9B",
"&	c #0F6D9D",
"*	c #106C9D",
"=	c #106B9A",
"-	c #0F6DA0",
";	c #116997",
">	c #0E6FA2",
",	c #126895",
"'	c #0E70A5",
")	c #116895",
"!	c #0D72A7",
"~	c #2E85B3",
"{	c #FFFFFF",
"]	c #3D8EB9",
"^	c #116896",
"/	c #0C73AA",
"(	c #74AFCE",
"_	c #76B0CF",
":	c #0C74AC",
"<	c #7AB3D1",
"[	c #0B76AF",
"}	c #3B91BF",
"|	c #76B2D2",
"1	c #79B4D3",
"2	c #8EC0DA",
"3	c #0A77B1",
"4	c #116998",
"5	c #0A79B4",
"6	c #3D95C4",
"7	c #79B6D6",
"8	c #7CB8D7",
"9	c #8EC1DC",
"0	c #097AB6",
"a	c #78B6D7",
"b	c #106A99",
"c	c #087CB9",
"d	c #74B6D8",
"e	c #106A9A",
"f	c #087DBB",
"g	c #3997C9",
"h	c #3A98C9",
"i	c #077EBE",
"j	c #106B9B",
"k	c #0680C0",
"l	c #106B9C",
"m	c #0681C3",
"n	c #106C9C",
"o	c #0583C5",
"p	c #0484C8",
".++++++++++++++++++++++.",
"@######################@",
"$%%%%%%%%%%%%%%%%%%%%%%$",
"&**********************&",
"=----------------------=",
";>>>>>>>>>>>>>>>>>>>>>>;",
",'''''''''''''''''''''',",
")!!!!!!!!!!!~{]!!!!!!!!)",
"^///////////({_////////^",
"^:::::::::::<{<::::::::^",
";[[[[[[[[}|12{21|}[[[[[;",
";33333333{{{{{{{{{33333;",
"4555555556789{9876555554",
"#00000000000a{a00000000#",
"bcccccccccccd{dccccccccb",
"efffffffffffg{hffffffffe",
"=iiiiiiiiiiiiiiiiiiiiii=",
"jkkkkkkkkkkkkkkkkkkkkkkj",
"lmmmmmmmmmmmmmmmmmmmmmml",
"noooooooooooooooooooooon",
"*pppppppppppppppppppppp*"};
