/* XPM */
static char * maximize_pressed_xpm[] = {
"24 21 66 1",
" 	c None",
".	c #0E72A6",
"+	c #116A98",
"@	c #0E70A3",
"#	c #116A99",
"$	c #0F6EA0",
"%	c #116B9B",
"&	c #0F6D9D",
"*	c #106C9D",
"=	c #106B9A",
"-	c #0F6DA0",
";	c #116997",
">	c #0E6FA2",
",	c #126895",
"'	c #0E70A5",
")	c #116895",
"!	c #0D72A7",
"~	c #2E85B3",
"{	c #7EB4D0",
"]	c #3D8EB9",
"^	c #116896",
"/	c #0C73AA",
"(	c #74AFCE",
"_	c #79B2D0",
":	c #76B0CF",
"<	c #0C74AC",
"[	c #7AB3D1",
"}	c #6AAACC",
"|	c #0B76AF",
"1	c #3B91BF",
"2	c #76B2D2",
"3	c #79B4D3",
"4	c #8EC0DA",
"5	c #6AABCE",
"6	c #0A77B1",
"7	c #7EB8D6",
"8	c #71B0D2",
"9	c #67ABCF",
"0	c #5CA4CB",
"a	c #116998",
"b	c #0A79B4",
"c	c #3D95C4",
"d	c #79B6D6",
"e	c #7CB8D7",
"f	c #8EC1DC",
"g	c #69ADD1",
"h	c #097AB6",
"i	c #78B6D7",
"j	c #69AED2",
"k	c #106A99",
"l	c #087CB9",
"m	c #74B6D8",
"n	c #72B4D7",
"o	c #106A9A",
"p	c #087DBB",
"q	c #3997C9",
"r	c #7DBBDB",
"s	c #3A98C9",
"t	c #077EBE",
"u	c #106B9B",
"v	c #0680C0",
"w	c #106B9C",
"x	c #0681C3",
"y	c #106C9C",
"z	c #0583C5",
"A	c #0484C8",
".++++++++++++++++++++++.",
"@######################@",
"$%%%%%%%%%%%%%%%%%%%%%%$",
"&**********************&",
"=----------------------=",
";>>>>>>>>>>>>>>>>>>>>>>;",
",'''''''''''''''''''''',",
")!!!!!!!!!!!~{]!!!!!!!!)",
"^///////////(_:////////^",
"^<<<<<<<<<<<[}[<<<<<<<<^",
";||||||||123454321|||||;",
";6666666678990998766666;",
"abbbbbbbbcdefgfedcbbbbba",
"#hhhhhhhhhhhijihhhhhhhh#",
"klllllllllllmnmllllllllk",
"opppppppppppqrsppppppppo",
"=tttttttttttttttttttttt=",
"uvvvvvvvvvvvvvvvvvvvvvvu",
"wxxxxxxxxxxxxxxxxxxxxxxw",
"yzzzzzzzzzzzzzzzzzzzzzzy",
"*AAAAAAAAAAAAAAAAAAAAAA*"};
