/* XPM */
static char * maximize_active_xpm[] = {
"24 21 92 2",
"  	c None",
". 	c #2EB7FF",
"+ 	c #0683C4",
"@ 	c #26B4FF",
"# 	c #2BB3FA",
"$ 	c #0780BE",
"% 	c #1FB2FF",
"& 	c #29AFF5",
"* 	c #087DB9",
"= 	c #18AFFF",
"- 	c #26ABF0",
"; 	c #097AB4",
"> 	c #11ADFF",
", 	c #24A7EC",
"' 	c #0A77AF",
") 	c #0AAAFF",
"! 	c #21A3E7",
"~ 	c #0B74AA",
"{ 	c #03A8FF",
"] 	c #1F9FE2",
"^ 	c #3EACE6",
"/ 	c #88CCF0",
"( 	c #4CB2E8",
"_ 	c #0C71A5",
": 	c #03A5FA",
"< 	c #1C9BDD",
"[ 	c #7DC6EC",
"} 	c #81C8EC",
"| 	c #7FC7EC",
"1 	c #0D6EA0",
"2 	c #03A2F5",
"3 	c #1A97D9",
"4 	c #81C6EA",
"5 	c #73BFE8",
"6 	c #0F6B9B",
"7 	c #049FF0",
"8 	c #1793D4",
"9 	c #44A8DC",
"0 	c #7DC2E7",
"a 	c #80C4E7",
"b 	c #94CDEB",
"c 	c #71BDE5",
"d 	c #106896",
"e 	c #049CEC",
"f 	c #158FCF",
"g 	c #84C4E6",
"h 	c #77BEE3",
"i 	c #6EBAE1",
"j 	c #63B4DF",
"k 	c #116591",
"l 	c #0499E7",
"m 	c #128BCA",
"n 	c #43A3D5",
"o 	c #7EC0E2",
"p 	c #81C1E3",
"q 	c #91C9E6",
"r 	c #6EB8DF",
"s 	c #12628C",
"t 	c #0596E2",
"u 	c #1087C6",
"v 	c #7CBDE0",
"w 	c #6DB6DC",
"x 	c #135F87",
"y 	c #0593DD",
"z 	c #0D83C1",
"A 	c #77B9DC",
"B 	c #74B8DC",
"C 	c #145C82",
"D 	c #0690D9",
"E 	c #0B7FBC",
"F 	c #3C99C9",
"G 	c #7FBCDC",
"H 	c #3D99CA",
"I 	c #15597D",
"J 	c #068DD4",
"K 	c #097CB8",
"L 	c #175778",
"M 	c #068ACF",
"N 	c #097BB7",
"O 	c #165879",
"P 	c #0787CA",
"Q 	c #097BB6",
"R 	c #16597B",
"S 	c #0784C6",
"T 	c #097AB5",
"U 	c #165A7D",
"V 	c #0881C1",
"W 	c #0A7AB4",
"X 	c #165B7F",
"Y 	c #087EBC",
"Z 	c #0A79B3",
"` 	c #165C81",
". . . . . . . . . . . . . . . . . . . . . . . + ",
"@ # # # # # # # # # # # # # # # # # # # # # # $ ",
"% & & & & & & & & & & & & & & & & & & & & & & * ",
"= - - - - - - - - - - - - - - - - - - - - - - ; ",
"> , , , , , , , , , , , , , , , , , , , , , , ' ",
") ! ! ! ! ! ! ! ! ! ! ! ! ! ! ! ! ! ! ! ! ! ! ~ ",
"{ ] ] ] ] ] ] ] ] ] ] ^ / ( ] ] ] ] ] ] ] ] ] _ ",
": < < < < < < < < < < [ } | < < < < < < < < < 1 ",
"2 3 3 3 3 3 3 3 3 3 3 4 5 4 3 3 3 3 3 3 3 3 3 6 ",
"7 8 8 8 8 8 8 8 9 0 a b c b a 0 9 8 8 8 8 8 8 d ",
"e f f f f f f f g h i i j i i h g f f f f f f k ",
"l m m m m m m m n o p q r q p o n m m m m m m s ",
"t u u u u u u u u u u v w v u u u u u u u u u x ",
"y z z z z z z z z z z A B A z z z z z z z z z C ",
"D E E E E E E E E E E F G H E E E E E E E E E I ",
"J K K K K K K K K K K K K K K K K K K K K K K L ",
"M N N N N N N N N N N N N N N N N N N N N N N O ",
"P Q Q Q Q Q Q Q Q Q Q Q Q Q Q Q Q Q Q Q Q Q Q R ",
"S T T T T T T T T T T T T T T T T T T T T T T U ",
"V W W W W W W W W W W W W W W W W W W W W W W X ",
"Y Z Z Z Z Z Z Z Z Z Z Z Z Z Z Z Z Z Z Z Z Z Z ` "};
