/* XPM */
static char * maximize_prelight_xpm[] = {
"24 21 91 1",
" 	c None",
".	c #18B0FF",
"+	c #4EC2FF",
"@	c #0093E0",
"#	c #16ADFC",
"$	c #48BEFD",
"%	c #0190DA",
"&	c #14ABF9",
"*	c #43BBFB",
"=	c #028DD5",
"-	c #13A9F7",
";	c #3EB8F9",
">	c #038AD0",
",	c #11A6F4",
"'	c #39B5F7",
")	c #0587CB",
"!	c #10A4F1",
"~	c #34B2F5",
"{	c #0684C6",
"]	c #0EA2EF",
"^	c #2EAFF3",
"/	c #4BBAF5",
"(	c #90D4F9",
"_	c #58BFF5",
":	c #0781C1",
"<	c #0C9FEC",
"[	c #29ACF1",
"}	c #84CFF7",
"|	c #89D1F7",
"1	c #86D0F7",
"2	c #087EBC",
"3	c #0B9DE9",
"4	c #24A9EF",
"5	c #87D0F6",
"6	c #79CAF5",
"7	c #0A7BB6",
"8	c #099BE7",
"9	c #1FA6ED",
"0	c #4BB7F1",
"a	c #81CDF5",
"b	c #84CEF5",
"c	c #97D6F7",
"d	c #76C9F4",
"e	c #0B78B1",
"f	c #0898E4",
"g	c #1AA3EB",
"h	c #87CFF4",
"i	c #7ACAF3",
"j	c #71C6F3",
"k	c #66C2F2",
"l	c #0C75AC",
"m	c #0696E1",
"n	c #14A0E9",
"o	c #45B4EE",
"p	c #7FCBF3",
"q	c #82CCF3",
"r	c #92D3F5",
"s	c #6FC5F2",
"t	c #0D72A7",
"u	c #0494DF",
"v	c #0F9DE7",
"w	c #7BC9F2",
"x	c #6CC3F0",
"y	c #0F6FA2",
"z	c #0391DC",
"A	c #0A9AE5",
"B	c #76C6F0",
"C	c #73C5F0",
"D	c #106C9D",
"E	c #018FD9",
"F	c #0597E3",
"G	c #37ACE9",
"H	c #7CC8F0",
"I	c #38ACE9",
"J	c #116998",
"K	c #008DD7",
"L	c #0094E2",
"M	c #136793",
"N	c #008FDA",
"O	c #0096E5",
"P	c #126894",
"Q	c #0091DE",
"R	c #0098E9",
"S	c #126996",
"T	c #0093E1",
"U	c #009AEC",
"V	c #116A98",
"W	c #009DF0",
"X	c #116B9A",
"Y	c #009FF4",
"Z	c #106C9C",
".++++++++++++++++++++++@",
"#$$$$$$$$$$$$$$$$$$$$$$%",
"&**********************=",
"-;;;;;;;;;;;;;;;;;;;;;;>",
",'''''''''''''''''''''')",
"!~~~~~~~~~~~~~~~~~~~~~~{",
"]^^^^^^^^^^/(_^^^^^^^^^:",
"<[[[[[[[[[[}|1[[[[[[[[[2",
"344444444445654444444447",
"899999990abcdcba0999999e",
"fggggggghijjkjjihggggggl",
"mnnnnnnnopqrsrqponnnnnnt",
"uvvvvvvvvvvwxwvvvvvvvvvy",
"zAAAAAAAAAABCBAAAAAAAAAD",
"EFFFFFFFFFFGHIFFFFFFFFFJ",
"KLLLLLLLLLLLLLLLLLLLLLLM",
"NOOOOOOOOOOOOOOOOOOOOOOP",
"QRRRRRRRRRRRRRRRRRRRRRRS",
"TUUUUUUUUUUUUUUUUUUUUUUV",
"OWWWWWWWWWWWWWWWWWWWWWWX",
"RYYYYYYYYYYYYYYYYYYYYYYZ"};
