/* XPM */
static char * maximize_inactive_xpm[] = {
"24 21 60 1",
" 	c None",
".	c #E4E0E0",
"+	c #DCD7D7",
"@	c #D1CBCB",
"#	c #E2DEDE",
"$	c #DAD5D5",
"%	c #CFC9C9",
"&	c #E1DCDC",
"*	c #D9D3D3",
"=	c #CEC8C8",
"-	c #DFDBDB",
";	c #D7D2D2",
">	c #CDC7C7",
",	c #DED9D9",
"'	c #D6D0D0",
")	c #CCC5C5",
"!	c #DCD8D8",
"~	c #D4CFCF",
"{	c #CBC4C4",
"]	c #DBD6D6",
"^	c #D3CDCD",
"/	c #FFFFFF",
"(	c #DAD4D4",
"_	c #CAC3C3",
":	c #D2CCCC",
"<	c #E0DCDC",
"[	c #E1DDDD",
"}	c #C9C2C2",
"|	c #D8D3D3",
"1	c #D0CACA",
"2	c #C7C0C0",
"3	c #D7D1D1",
"4	c #CFC8C8",
"5	c #DFDADA",
"6	c #C6BFBF",
"7	c #D5D0D0",
"8	c #F8F7F7",
"9	c #C5BEBE",
"0	c #D4CECE",
"a	c #DDD9D9",
"b	c #C4BDBD",
"c	c #D3CCCC",
"d	c #CAC4C4",
"e	c #C3BBBB",
"f	c #C2BABA",
"g	c #D0C9C9",
"h	c #C8C1C1",
"i	c #C1B9B9",
"j	c #BFB7B7",
"k	c #CDC6C6",
"l	c #C5BDBD",
"m	c #BEB6B6",
"n	c #CCC4C4",
"o	c #C3BCBC",
"p	c #BDB5B5",
"q	c #BCB4B4",
"r	c #C9C1C1",
"s	c #C0B9B9",
"t	c #BBB2B2",
"u	c #BAB1B1",
".++++++++++++++++++++++@",
"#$$$$$$$$$$$$$$$$$$$$$$%",
"&**********************=",
"-;;;;;;;;;;;;;;;;;;;;;;>",
",'''''''''''''''''''''')",
"!~~~~~~~~~~~~~~~~~~~~~~{",
"]^^^^^^^^^^;/(^^^^^^^^^_",
"(::::::::::</[:::::::::}",
"|1111111111</<1111111112",
"34444444'5-#/#-5'4444446",
"7>>>>>>>8////////>>>>>>9",
"0)))))))0a,</<,a0))))))b",
"cdddddddddd!/!ddddddddde",
"@}}}}}}}}}}]/]}}}}}}}}}f",
"ghhhhhhhhhh1/1hhhhhhhhhi",
"=6666666666666666666666j",
"kllllllllllllllllllllllm",
"noooooooooooooooooooooop",
"_ffffffffffffffffffffffq",
"rsssssssssssssssssssssst",
"2jjjjjjjjjjjjjjjjjjjjjju"};
