/* XPM */
static char * shade_toggled_prelight_xpm[] = {
"24 21 99 2",
"  	c None",
". 	c #18B0FF",
"+ 	c #4EC2FF",
"@ 	c #0093E0",
"# 	c #16ADFC",
"$ 	c #48BEFD",
"% 	c #0190DA",
"& 	c #14ABF9",
"* 	c #43BBFB",
"= 	c #028DD5",
"- 	c #13A9F7",
"; 	c #3EB8F9",
"> 	c #038AD0",
", 	c #11A6F4",
"' 	c #39B5F7",
") 	c #0587CB",
"! 	c #10A4F1",
"~ 	c #34B2F5",
"{ 	c #52BDF6",
"] 	c #55BEF7",
"^ 	c #35B2F5",
"/ 	c #4FBCF6",
"( 	c #51BDF6",
"_ 	c #0684C6",
": 	c #0EA2EF",
"< 	c #2EAFF3",
"[ 	c #4FBCF5",
"} 	c #99D8F9",
"| 	c #97D7F9",
"1 	c #6AC6F6",
"2 	c #2FAFF3",
"3 	c #6CC7F7",
"4 	c #96D7F9",
"5 	c #4CBBF5",
"6 	c #0781C1",
"7 	c #0C9FEC",
"8 	c #29ACF1",
"9 	c #43B6F3",
"0 	c #94D5F8",
"a 	c #71C8F6",
"b 	c #93D5F8",
"c 	c #66C4F5",
"d 	c #67C4F5",
"e 	c #92D5F8",
"f 	c #40B5F2",
"g 	c #087EBC",
"h 	c #0B9DE9",
"i 	c #24A9EF",
"j 	c #25A9EF",
"k 	c #63C2F4",
"l 	c #90D3F7",
"m 	c #6EC6F4",
"n 	c #60C1F3",
"o 	c #0A7BB6",
"p 	c #099BE7",
"q 	c #1FA6ED",
"r 	c #20A6ED",
"s 	c #5CBEF1",
"t 	c #8BD0F5",
"u 	c #67C2F2",
"v 	c #8AD0F5",
"w 	c #5CBDF1",
"x 	c #0B78B1",
"y 	c #0898E4",
"z 	c #1AA3EB",
"A 	c #1BA3EB",
"B 	c #14A0E9",
"C 	c #62C0F0",
"D 	c #88CFF4",
"E 	c #87CFF4",
"F 	c #0C75AC",
"G 	c #0696E1",
"H 	c #0D72A7",
"I 	c #0494DF",
"J 	c #0F9DE7",
"K 	c #0F6FA2",
"L 	c #0391DC",
"M 	c #0A9AE5",
"N 	c #106C9D",
"O 	c #018FD9",
"P 	c #0597E3",
"Q 	c #0697E3",
"R 	c #116998",
"S 	c #008DD7",
"T 	c #0094E2",
"U 	c #136793",
"V 	c #008FDA",
"W 	c #0096E5",
"X 	c #126894",
"Y 	c #0091DE",
"Z 	c #0098E9",
"` 	c #126996",
" .	c #0093E1",
"..	c #009AEC",
"+.	c #116A98",
"@.	c #009DF0",
"#.	c #116B9A",
"$.	c #009FF4",
"%.	c #106C9C",
". + + + + + + + + + + + + + + + + + + + + + + @ ",
"# $ $ $ $ $ $ $ $ $ $ $ $ $ $ $ $ $ $ $ $ $ $ % ",
"& * * * * * * * * * * * * * * * * * * * * * * = ",
"- ; ; ; ; ; ; ; ; ; ; ; ; ; ; ; ; ; ; ; ; ; ; > ",
", ' ' ' ' ' ' ' ' ' ' ' ' ' ' ' ' ' ' ' ' ' ' ) ",
"! ~ ~ ~ ~ ~ ~ ~ { ] ^ ~ ~ ^ / ( ~ ~ ~ ~ ~ ~ ~ _ ",
": < < < < < < [ } | 1 < 2 3 4 } 5 < < < < < < 6 ",
"7 8 8 8 8 8 8 9 0 a b c d e a 0 f 8 8 8 8 8 8 g ",
"h i i i i i i j k l m l l m l n i i i i i i i o ",
"p q q q q q q q r s t u u v w q q q q q q q q x ",
"y z z z z z z z A B C D E C B A z z z z z z z F ",
"G B B B B B B B B B B C C B B B B B B B B B B H ",
"I J J J J J J J J J J J J J J J J J J J J J J K ",
"L M M M M M M M M M M M M M M M M M M M M M M N ",
"O P P P P P P P P P P P P Q P P P P P P P P P R ",
"S T T T T T T T T T T T T T T T T T T T T T T U ",
"V W W W W W W W W W W W W W W W W W W W W W W X ",
"Y Z Z Z Z Z Z Z Z Z Z Z Z Z Z Z Z Z Z Z Z Z Z ` ",
" .............................................+.",
"W @.@.@.@.@.@.@.@.@.@.@.@.@.@.@.@.@.@.@.@.@.@.#.",
"Z $.$.$.$.$.$.$.$.$.$.$.$.$.$.$.$.$.$.$.$.$.$.%."};
