/* XPM */
static char * shade_toggled_inactive_xpm[] = {
"24 21 66 1",
" 	c None",
".	c #E4E0E0",
"+	c #DCD7D7",
"@	c #D1CBCB",
"#	c #E2DEDE",
"$	c #DAD5D5",
"%	c #CFC9C9",
"&	c #E1DCDC",
"*	c #D9D3D3",
"=	c #CEC8C8",
"-	c #DFDBDB",
";	c #D7D2D2",
">	c #CDC7C7",
",	c #DED9D9",
"'	c #D6D0D0",
")	c #CCC5C5",
"!	c #DCD8D8",
"~	c #D4CFCF",
"{	c #D9D4D4",
"]	c #D9D5D5",
"^	c #D8D4D4",
"/	c #CBC4C4",
"(	c #DBD6D6",
"_	c #D3CDCD",
":	c #D8D3D3",
"<	c #FFFFFF",
"[	c #E3E0E0",
"}	c #DDD8D8",
"|	c #D8D2D2",
"1	c #CAC3C3",
"2	c #DAD4D4",
"3	c #D2CCCC",
"4	c #D6D1D1",
"5	c #E3DFDF",
"6	c #E2DFDF",
"7	c #C9C2C2",
"8	c #D0CACA",
"9	c #E1DEDE",
"0	c #C7C0C0",
"a	c #D7D1D1",
"b	c #CFC8C8",
"c	c #C6BFBF",
"d	c #D5D0D0",
"e	c #DFDCDC",
"f	c #C5BEBE",
"g	c #D4CECE",
"h	c #C4BDBD",
"i	c #D3CCCC",
"j	c #CAC4C4",
"k	c #C3BBBB",
"l	c #C2BABA",
"m	c #D0C9C9",
"n	c #C8C1C1",
"o	c #C1B9B9",
"p	c #BFB7B7",
"q	c #CDC6C6",
"r	c #C5BDBD",
"s	c #BEB6B6",
"t	c #CCC4C4",
"u	c #C3BCBC",
"v	c #BDB5B5",
"w	c #BCB4B4",
"x	c #C9C1C1",
"y	c #C0B9B9",
"z	c #BBB2B2",
"A	c #BAB1B1",
".++++++++++++++++++++++@",
"#$$$$$$$$$$$$$$$$$$$$$$%",
"&**********************=",
"-;;;;;;;;;;;;;;;;;;;;;;>",
",'''''''''''''''''''''')",
"!~~~~~~~{]~~~~^{~~~~~~~/",
"(______:<[!__}[<|______1",
"233333345<5++6<5'3333337",
":8888888$9<99<9$88888880",
"abbbbbbbb{&<<&*bbbbbbbbc",
"d>>>>>>>>>:e-:>>>>>>>>>f",
"g))))))))))**))))))))))h",
"ijjjjjjjjjjjjjjjjjjjjjjk",
"@7777777777777777777777l",
"mnnnnnnnnnnnnnnnnnnnnnno",
"=ccccccccccccccccccccccp",
"qrrrrrrrrrrrrrrrrrrrrrrs",
"tuuuuuuuuuuuuuuuuuuuuuuv",
"1llllllllllllllllllllllw",
"xyyyyyyyyyyyyyyyyyyyyyyz",
"0ppppppppppppppppppppppA"};
