/* XPM */
static char * shade_toggled_prelight_xpm[] = {
"24 21 96 2",
"  	c None",
". 	c #18B0FF",
"+ 	c #4EC2FF",
"@ 	c #0093E0",
"# 	c #16ADFC",
"$ 	c #48BEFD",
"% 	c #0190DA",
"& 	c #14ABF9",
"* 	c #43BBFB",
"= 	c #028DD5",
"- 	c #13A9F7",
"; 	c #3EB8F9",
"> 	c #038AD0",
", 	c #11A6F4",
"' 	c #39B5F7",
") 	c #0587CB",
"! 	c #10A4F1",
"~ 	c #34B2F5",
"{ 	c #52BDF6",
"] 	c #55BEF7",
"^ 	c #35B2F5",
"/ 	c #4FBCF6",
"( 	c #51BDF6",
"_ 	c #0684C6",
": 	c #0EA2EF",
"< 	c #2EAFF3",
"[ 	c #4FBCF5",
"} 	c #FFFFFF",
"| 	c #97D7F9",
"1 	c #6AC6F6",
"2 	c #2FAFF3",
"3 	c #6CC7F7",
"4 	c #96D7F9",
"5 	c #4CBBF5",
"6 	c #0781C1",
"7 	c #0C9FEC",
"8 	c #29ACF1",
"9 	c #43B6F3",
"0 	c #94D5F8",
"a 	c #93D5F8",
"b 	c #66C4F5",
"c 	c #67C4F5",
"d 	c #92D5F8",
"e 	c #40B5F2",
"f 	c #087EBC",
"g 	c #0B9DE9",
"h 	c #24A9EF",
"i 	c #25A9EF",
"j 	c #63C2F4",
"k 	c #90D3F7",
"l 	c #60C1F3",
"m 	c #0A7BB6",
"n 	c #099BE7",
"o 	c #1FA6ED",
"p 	c #20A6ED",
"q 	c #5CBEF1",
"r 	c #8BD0F5",
"s 	c #8AD0F5",
"t 	c #5CBDF1",
"u 	c #0B78B1",
"v 	c #0898E4",
"w 	c #1AA3EB",
"x 	c #1BA3EB",
"y 	c #14A0E9",
"z 	c #62C0F0",
"A 	c #88CFF4",
"B 	c #87CFF4",
"C 	c #0C75AC",
"D 	c #0696E1",
"E 	c #0D72A7",
"F 	c #0494DF",
"G 	c #0F9DE7",
"H 	c #0F6FA2",
"I 	c #0391DC",
"J 	c #0A9AE5",
"K 	c #106C9D",
"L 	c #018FD9",
"M 	c #0597E3",
"N 	c #0697E3",
"O 	c #116998",
"P 	c #008DD7",
"Q 	c #0094E2",
"R 	c #136793",
"S 	c #008FDA",
"T 	c #0096E5",
"U 	c #126894",
"V 	c #0091DE",
"W 	c #0098E9",
"X 	c #126996",
"Y 	c #0093E1",
"Z 	c #009AEC",
"` 	c #116A98",
" .	c #009DF0",
"..	c #116B9A",
"+.	c #009FF4",
"@.	c #106C9C",
". + + + + + + + + + + + + + + + + + + + + + + @ ",
"# $ $ $ $ $ $ $ $ $ $ $ $ $ $ $ $ $ $ $ $ $ $ % ",
"& * * * * * * * * * * * * * * * * * * * * * * = ",
"- ; ; ; ; ; ; ; ; ; ; ; ; ; ; ; ; ; ; ; ; ; ; > ",
", ' ' ' ' ' ' ' ' ' ' ' ' ' ' ' ' ' ' ' ' ' ' ) ",
"! ~ ~ ~ ~ ~ ~ ~ { ] ^ ~ ~ ^ / ( ~ ~ ~ ~ ~ ~ ~ _ ",
": < < < < < < [ } | 1 < 2 3 4 } 5 < < < < < < 6 ",
"7 8 8 8 8 8 8 9 0 } a b c d } 0 e 8 8 8 8 8 8 f ",
"g h h h h h h i j k } k k } k l h h h h h h h m ",
"n o o o o o o o p q r } } s t o o o o o o o o u ",
"v w w w w w w w x y z A B z y x w w w w w w w C ",
"D y y y y y y y y y y z z y y y y y y y y y y E ",
"F G G G G G G G G G G G G G G G G G G G G G G H ",
"I J J J J J J J J J J J J J J J J J J J J J J K ",
"L M M M M M M M M M M M M N M M M M M M M M M O ",
"P Q Q Q Q Q Q Q Q Q Q Q Q Q Q Q Q Q Q Q Q Q Q R ",
"S T T T T T T T T T T T T T T T T T T T T T T U ",
"V W W W W W W W W W W W W W W W W W W W W W W X ",
"Y Z Z Z Z Z Z Z Z Z Z Z Z Z Z Z Z Z Z Z Z Z Z ` ",
"T  . . . . . . . . . . . . . . . . . . . . . ...",
"W +.+.+.+.+.+.+.+.+.+.+.+.+.+.+.+.+.+.+.+.+.+.@."};
