/* XPM */
static char * shade_pressed_xpm[] = {
"24 21 75 1",
" 	c None",
".	c #0E72A6",
"+	c #116A98",
"@	c #0E70A3",
"#	c #116A99",
"$	c #0F6EA0",
"%	c #116B9B",
"&	c #0F6D9D",
"*	c #106C9D",
"=	c #106B9A",
"-	c #0F6DA0",
";	c #116997",
">	c #0E6FA2",
",	c #126895",
"'	c #0E70A5",
")	c #116895",
"!	c #0D72A7",
"~	c #116896",
"{	c #0C73AA",
"]	c #0C74AC",
"^	c #0D75AC",
"/	c #5EA3C8",
"(	c #0B76AF",
"_	c #509DC6",
":	c #84BAD7",
"<	c #0A77B1",
"[	c #0B78B1",
"}	c #519EC8",
"|	c #83BAD8",
"1	c #5DA5CB",
"2	c #82BAD7",
"3	c #509EC7",
"4	c #116998",
"5	c #0A79B4",
"6	c #0B7AB4",
"7	c #53A1CA",
"8	c #82BBD9",
"9	c #5CA6CD",
"0	c #83BBD9",
"a	c #81BAD8",
"b	c #509FC9",
"c	c #097AB6",
"d	c #318FC2",
"e	c #84BCDA",
"f	c #5BA6CE",
"g	c #82BBDA",
"h	c #4EA0CB",
"i	c #4FA0CB",
"j	c #81BBD9",
"k	c #2E8EC1",
"l	c #106A99",
"m	c #087CB9",
"n	c #3091C4",
"o	c #86BFDD",
"p	c #84BEDC",
"q	c #4CA0CC",
"r	c #097DB9",
"s	c #4FA2CD",
"t	c #83BDDC",
"u	c #2D90C3",
"v	c #106A9A",
"w	c #087DBB",
"x	c #0A7EBC",
"y	c #2E91C5",
"z	c #2B8FC5",
"A	c #097EBB",
"B	c #2D90C5",
"C	c #077EBE",
"D	c #106B9B",
"E	c #0680C0",
"F	c #106B9C",
"G	c #0681C3",
"H	c #106C9C",
"I	c #0583C5",
"J	c #0484C8",
".++++++++++++++++++++++.",
"@######################@",
"$%%%%%%%%%%%%%%%%%%%%%%$",
"&**********************&",
"=----------------------=",
";>>>>>>>>>>>>>>>>>>>>>>;",
",'''''''''''''''''''''',",
")!!!!!!!!!!!!!!!!!!!!!!)",
"~{{{{{{{{{{{{{{{{{{{{{{~",
"~]]]]]]]^]]]//]]]]]]]]]~",
";((((((((((_::_((((((((;",
";<<<<<<<<[}|1123[<<<<<<;",
"455555556789089ab6555554",
"#cccccccdefghijfekccccc#",
"lmmmmmmmnopqmrstoummmmml",
"vwwwwwwwxyzwwwABBAwwwwwv",
"=CCCCCCCCCCCCCCCCCCCCCC=",
"DEEEEEEEEEEEEEEEEEEEEEED",
"FGGGGGGGGGGGGGGGGGGGGGGF",
"HIIIIIIIIIIIIIIIIIIIIIIH",
"*JJJJJJJJJJJJJJJJJJJJJJ*"};
