/* XPM */
static char * shade_active2_xpm[] = {
"24 21 99 2",
"  	c None",
". 	c #2EB7FF",
"+ 	c #0683C4",
"@ 	c #26B4FF",
"# 	c #2BB3FA",
"$ 	c #0780BE",
"% 	c #1FB2FF",
"& 	c #29AFF5",
"* 	c #087DB9",
"= 	c #18AFFF",
"- 	c #26ABF0",
"; 	c #097AB4",
"> 	c #11ADFF",
", 	c #24A7EC",
"' 	c #0A77AF",
") 	c #0AAAFF",
"! 	c #21A3E7",
"~ 	c #0B74AA",
"{ 	c #03A8FF",
"] 	c #1F9FE2",
"^ 	c #0C71A5",
"/ 	c #03A5FA",
"( 	c #1C9BDD",
"_ 	c #0D6EA0",
": 	c #03A2F5",
"< 	c #1A97D9",
"[ 	c #5DB8E7",
"} 	c #5EB8E7",
"| 	c #0F6B9B",
"1 	c #049FF0",
"2 	c #1793D4",
"3 	c #67BAE6",
"4 	c #8BCAEC",
"5 	c #106896",
"6 	c #049CEC",
"7 	c #158FCF",
"8 	c #168FCF",
"9 	c #59B0DD",
"0 	c #8AC8E9",
"a 	c #64B5DF",
"b 	c #58AFDD",
"c 	c #116591",
"d 	c #0499E7",
"e 	c #128BCA",
"f 	c #138BCA",
"g 	c #59AEDA",
"h 	c #86C4E4",
"i 	c #61B2DC",
"j 	c #87C4E4",
"k 	c #85C3E4",
"l 	c #56ACD9",
"m 	c #12628C",
"n 	c #0596E2",
"o 	c #1087C6",
"p 	c #369ACF",
"q 	c #87C3E2",
"r 	c #60AFD9",
"s 	c #85C2E2",
"t 	c #53A9D6",
"u 	c #54A9D6",
"v 	c #84C1E2",
"w 	c #3499CE",
"x 	c #135F87",
"y 	c #0593DD",
"z 	c #0D83C1",
"A 	c #3497CB",
"B 	c #88C2E1",
"C 	c #86C1E0",
"D 	c #4FA5D2",
"E 	c #0E83C1",
"F 	c #52A6D3",
"G 	c #3195CA",
"H 	c #145C82",
"I 	c #0690D9",
"J 	c #0B7FBC",
"K 	c #0D80BD",
"L 	c #3093C6",
"M 	c #2D91C5",
"N 	c #0C80BC",
"O 	c #2F92C6",
"P 	c #15597D",
"Q 	c #068DD4",
"R 	c #097CB8",
"S 	c #175778",
"T 	c #068ACF",
"U 	c #097BB7",
"V 	c #165879",
"W 	c #0787CA",
"X 	c #097BB6",
"Y 	c #16597B",
"Z 	c #0784C6",
"` 	c #097AB5",
" .	c #165A7D",
"..	c #0881C1",
"+.	c #0A7AB4",
"@.	c #165B7F",
"#.	c #087EBC",
"$.	c #0A79B3",
"%.	c #165C81",
". . . . . . . . . . . . . . . . . . . . . . . + ",
"@ # # # # # # # # # # # # # # # # # # # # # # $ ",
"% & & & & & & & & & & & & & & & & & & & & & & * ",
"= - - - - - - - - - - - - - - - - - - - - - - ; ",
"> , , , , , , , , , , , , , , , , , , , , , , ' ",
") ! ! ! ! ! ! ! ! ! ! ! ! ! ! ! ! ! ! ! ! ! ! ~ ",
"{ ] ] ] ] ] ] ] ] ] ] ] ] ] ] ] ] ] ] ] ] ] ] ^ ",
"/ ( ( ( ( ( ( ( ( ( ( ( ( ( ( ( ( ( ( ( ( ( ( _ ",
": < < < < < < < < < ( [ } ( < < < < < < < < < | ",
"1 2 2 2 2 2 2 2 2 2 3 4 4 3 2 2 2 2 2 2 2 2 2 5 ",
"6 7 7 7 7 7 7 7 8 9 0 a a 0 b 8 7 7 7 7 7 7 7 c ",
"d e e e e e e f g h i j h i k l f e e e e e e m ",
"n o o o o o o p q r s t u v r q w o o o o o o x ",
"y z z z z z z A B C D z E F C B G z z z z z z H ",
"I J J J J J J K L M J J J N O O N J J J J J J P ",
"Q R R R R R R R R R R R R R R R R R R R R R R S ",
"T U U U U U U U U U U U U U U U U U U U U U U V ",
"W X X X X X X X X X X X X X X X X X X X X X X Y ",
"Z ` ` ` ` ` ` ` ` ` ` ` ` ` ` ` ` ` ` ` ` ` `  .",
"..+.+.+.+.+.+.+.+.+.+.+.+.+.+.+.+.+.+.+.+.+.+.@.",
"#.$.$.$.$.$.$.$.$.$.$.$.$.$.$.$.$.$.$.$.$.$.$.%."};
