/* XPM */
static char * shade_toggled_active_xpm[] = {
"24 21 100 2",
"  	c None",
". 	c #2EB7FF",
"+ 	c #0683C4",
"@ 	c #26B4FF",
"# 	c #2BB3FA",
"$ 	c #0780BE",
"% 	c #1FB2FF",
"& 	c #29AFF5",
"* 	c #087DB9",
"= 	c #18AFFF",
"- 	c #26ABF0",
"; 	c #097AB4",
"> 	c #11ADFF",
", 	c #24A7EC",
"' 	c #0A77AF",
") 	c #0AAAFF",
"! 	c #21A3E7",
"~ 	c #42B1EB",
"{ 	c #45B2EB",
"] 	c #22A3E7",
"^ 	c #3FAFEA",
"/ 	c #41B0EA",
"( 	c #0B74AA",
"_ 	c #03A8FF",
": 	c #1F9FE2",
"< 	c #42AEE7",
"[ 	c #91D0F1",
"} 	c #8FCFF1",
"| 	c #5FBAEA",
"1 	c #209FE2",
"2 	c #62BCEB",
"3 	c #8FCFF0",
"4 	c #40ADE6",
"5 	c #0C71A5",
"6 	c #03A5FA",
"7 	c #1C9BDD",
"8 	c #38A7E1",
"9 	c #8DCDEE",
"0 	c #69BDE8",
"a 	c #8CCCEE",
"b 	c #5DB8E7",
"c 	c #5EB8E7",
"d 	c #8BCCEE",
"e 	c #34A6E1",
"f 	c #0D6EA0",
"g 	c #03A2F5",
"h 	c #1A97D9",
"i 	c #1B97D9",
"j 	c #5CB5E4",
"k 	c #8BCAEC",
"l 	c #67BAE6",
"m 	c #59B4E3",
"n 	c #0F6B9B",
"o 	c #049FF0",
"p 	c #1793D4",
"q 	c #1893D4",
"r 	c #59B2E0",
"s 	c #8AC8E9",
"t 	c #65B7E3",
"u 	c #59B1E0",
"v 	c #106896",
"w 	c #049CEC",
"x 	c #158FCF",
"y 	c #168FCF",
"z 	c #59B0DD",
"A 	c #89C6E7",
"B 	c #88C6E7",
"C 	c #58AFDD",
"D 	c #116591",
"E 	c #0499E7",
"F 	c #128BCA",
"G 	c #61B2DC",
"H 	c #12628C",
"I 	c #0596E2",
"J 	c #1087C6",
"K 	c #135F87",
"L 	c #0593DD",
"M 	c #0D83C1",
"N 	c #145C82",
"O 	c #0690D9",
"P 	c #0B7FBC",
"Q 	c #15597D",
"R 	c #068DD4",
"S 	c #097CB8",
"T 	c #175778",
"U 	c #068ACF",
"V 	c #097BB7",
"W 	c #165879",
"X 	c #0787CA",
"Y 	c #097BB6",
"Z 	c #16597B",
"` 	c #0784C6",
" .	c #097AB5",
"..	c #165A7D",
"+.	c #0881C1",
"@.	c #0A7AB4",
"#.	c #165B7F",
"$.	c #087EBC",
"%.	c #0A79B3",
"&.	c #165C81",
". . . . . . . . . . . . . . . . . . . . . . . + ",
"@ # # # # # # # # # # # # # # # # # # # # # # $ ",
"% & & & & & & & & & & & & & & & & & & & & & & * ",
"= - - - - - - - - - - - - - - - - - - - - - - ; ",
"> , , , , , , , , , , , , , , , , , , , , , , ' ",
") ! ! ! ! ! ! ! ~ { ] ! ! ] ^ / ! ! ! ! ! ! ! ( ",
"_ : : : : : : < [ } | : 1 2 3 [ 4 : : : : : : 5 ",
"6 7 7 7 7 7 7 8 9 0 a b c d 0 9 e 7 7 7 7 7 7 f ",
"g h h h h h h i j k l k k l k m h h h h h h h n ",
"o p p p p p p p q r s t t s u p p p p p p p p v ",
"w x x x x x x x y y z A B C y y x x x x x x x D ",
"E F F F F F F F F F F G G F F F F F F F F F F H ",
"I J J J J J J J J J J J J J J J J J J J J J J K ",
"L M M M M M M M M M M M M M M M M M M M M M M N ",
"O P P P P P P P P P P P P P P P P P P P P P P Q ",
"R S S S S S S S S S S S S S S S S S S S S S S T ",
"U V V V V V V V V V V V V V V V V V V V V V V W ",
"X Y Y Y Y Y Y Y Y Y Y Y Y Y Y Y Y Y Y Y Y Y Y Z ",
"`  . . . . . . . . . . . . . . . . . . . . . ...",
"+.@.@.@.@.@.@.@.@.@.@.@.@.@.@.@.@.@.@.@.@.@.@.#.",
"$.%.%.%.%.%.%.%.%.%.%.%.%.%.%.%.%.%.%.%.%.%.%.&."};
