/* XPM */
static char * title_4_inactive_xpm[] = {
"3 23 23 1",
" 	c None",
".	c #BEB6B6",
"+	c #DAD5D5",
"@	c #D9D4D4",
"#	c #D8D2D2",
"$	c #D6D1D1",
"%	c #D5CFCF",
"&	c #D4CECE",
"*	c #D2CCCC",
"=	c #D1CBCB",
"-	c #D0CACA",
";	c #CEC8C8",
">	c #CDC7C7",
",	c #CCC5C5",
"'	c #CBC4C4",
")	c #C9C2C2",
"!	c #C8C1C1",
"~	c #C7C0C0",
"{	c #C5BEBE",
"]	c #C4BDBD",
"^	c #C3BBBB",
"/	c #C1BABA",
"(	c #C0B8B8",
"...",
"+++",
"@@@",
"###",
"$$$",
"%%%",
"&&&",
"***",
"===",
"---",
";;;",
">>>",
",,,",
"'''",
")))",
"!!!",
"~~~",
"{{{",
"]]]",
"^^^",
"///",
"(((",
"..."};
