/* XPM */
static char * bottom_active_xpm[] = {
"32 3 3 1",
" 	c None",
".	c #14628A",
"+	c #14638D",
"................................",
"................................",
"++++++++++++++++++++++++++++++++"};
