/* XPM */
static char * close_inactive_xpm[] = {
"24 21 36 1",
" 	c #4C4A4A",
".	c #494747",
"+	c #454444",
"@	c #4B4A4A",
"#	c #484747",
"$	c #454343",
"%	c #4B4949",
"&	c #484646",
"*	c #4A4949",
"=	c #474646",
"-	c #444242",
";	c #4A4848",
">	c #474545",
",	c #494848",
"'	c #464545",
")	c #444141",
"!	c #464444",
"~	c #555555",
"{	c #434141",
"]	c #4D4C4C",
"^	c #424040",
"/	c #545454",
"(	c #4C4B4B",
"_	c #423F3F",
":	c #413F3F",
"<	c #4B4B4B",
"[	c #413E3E",
"}	c #525252",
"|	c #434040",
"1	c #454242",
"2	c #403E3E",
"3	c #403D3D",
"4	c #3F3D3D",
"5	c #3F3C3C",
"6	c #3E3C3C",
"7	c #3E3B3B",
" ......................+",
"@######################$",
"%&&&&&&&&&&&&&&&&&&&&&&$",
"*======================-",
";>>>>>>>>>>>>>>>>>>>>>>-",
",'''''''&#''''&&''''''')",
".!!!!!!&~@,!!,@~&!!!!!!{",
"&!!!!!!>@~@..@~]>!!!!!!{",
"&$$$$$$$#@~@@~@#$$$$$$$^",
">$$$$$$$$&%//%&$$$$$$$$^",
">--------&*/~(&--------_",
"'-------=;~;;~;>-------:",
"!{{{{{{+;~<>>,~;${{{{{{[",
"+{{{{{{$~,'{{',}${{{{{{[",
"$|||||||$1||||$=|||||||2",
"$^^^^^^^^^^^^^^^^^^^^^^3",
"-______________________4",
")::::::::::::::::::::::4",
"{[[[[[[[[[[[[[[[[[[[[[[5",
"|22222222222222222222226",
"^33333333333333333333337"};
