/* XPM */
static char * close_active_xpm[] = {
"24 21 123 2",
"  	c None",
". 	c #2EB7FF",
"+ 	c #0683C4",
"@ 	c #26B4FF",
"# 	c #2BB3FA",
"$ 	c #0780BE",
"% 	c #1FB2FF",
"& 	c #29AFF5",
"* 	c #087DB9",
"= 	c #18AFFF",
"- 	c #26ABF0",
"; 	c #097AB4",
"> 	c #11ADFF",
", 	c #24A7EC",
"' 	c #0A77AF",
") 	c #0AAAFF",
"! 	c #21A3E7",
"~ 	c #42B1EB",
"{ 	c #45B2EB",
"] 	c #22A3E7",
"^ 	c #3FAFEA",
"/ 	c #41B0EA",
"( 	c #0B74AA",
"_ 	c #03A8FF",
": 	c #1F9FE2",
"< 	c #42AEE7",
"[ 	c #FFFFFF",
"} 	c #8FCFF1",
"| 	c #5FBAEA",
"1 	c #209FE2",
"2 	c #62BCEB",
"3 	c #8FCFF0",
"4 	c #40ADE6",
"5 	c #0C71A5",
"6 	c #03A5FA",
"7 	c #1C9BDD",
"8 	c #38A7E1",
"9 	c #8DCDEE",
"0 	c #8CCCEE",
"a 	c #5DB8E7",
"b 	c #5EB8E7",
"c 	c #8BCCEE",
"d 	c #34A6E1",
"e 	c #0D6EA0",
"f 	c #03A2F5",
"g 	c #1A97D9",
"h 	c #1B97D9",
"i 	c #5CB5E4",
"j 	c #8BCAEC",
"k 	c #59B4E3",
"l 	c #0F6B9B",
"m 	c #049FF0",
"n 	c #1793D4",
"o 	c #1893D4",
"p 	c #59B2E0",
"q 	c #8AC8E9",
"r 	c #F9FCFD",
"s 	c #59B1E0",
"t 	c #106896",
"u 	c #049CEC",
"v 	c #158FCF",
"w 	c #168FCF",
"x 	c #59B0DD",
"y 	c #89C6E7",
"z 	c #F4F9FB",
"A 	c #F7FAFC",
"B 	c #88C6E7",
"C 	c #58AFDD",
"D 	c #116591",
"E 	c #0499E7",
"F 	c #128BCA",
"G 	c #138BCA",
"H 	c #59AEDA",
"I 	c #86C4E4",
"J 	c #87C4E4",
"K 	c #85C3E4",
"L 	c #56ACD9",
"M 	c #12628C",
"N 	c #0596E2",
"O 	c #1087C6",
"P 	c #369ACF",
"Q 	c #87C3E2",
"R 	c #85C2E2",
"S 	c #53A9D6",
"T 	c #54A9D6",
"U 	c #84C1E2",
"V 	c #3499CE",
"W 	c #135F87",
"X 	c #0593DD",
"Y 	c #0D83C1",
"Z 	c #3497CB",
"` 	c #86C1E0",
" .	c #4FA5D2",
"..	c #0E83C1",
"+.	c #52A6D3",
"@.	c #3195CA",
"#.	c #145C82",
"$.	c #0690D9",
"%.	c #0B7FBC",
"&.	c #0D80BD",
"*.	c #3093C6",
"=.	c #2D91C5",
"-.	c #0C80BC",
";.	c #2F92C6",
">.	c #15597D",
",.	c #068DD4",
"'.	c #097CB8",
").	c #175778",
"!.	c #068ACF",
"~.	c #097BB7",
"{.	c #165879",
"].	c #0787CA",
"^.	c #097BB6",
"/.	c #16597B",
"(.	c #0784C6",
"_.	c #097AB5",
":.	c #165A7D",
"<.	c #0881C1",
"[.	c #0A7AB4",
"}.	c #165B7F",
"|.	c #087EBC",
"1.	c #0A79B3",
"2.	c #165C81",
". . . . . . . . . . . . . . . . . . . . . . . + ",
"@ # # # # # # # # # # # # # # # # # # # # # # $ ",
"% & & & & & & & & & & & & & & & & & & & & & & * ",
"= - - - - - - - - - - - - - - - - - - - - - - ; ",
"> , , , , , , , , , , , , , , , , , , , , , , ' ",
") ! ! ! ! ! ! ! ~ { ] ! ! ] ^ / ! ! ! ! ! ! ! ( ",
"_ : : : : : : < [ } | : 1 2 3 [ 4 : : : : : : 5 ",
"6 7 7 7 7 7 7 8 9 [ 0 a b c [ 9 d 7 7 7 7 7 7 e ",
"f g g g g g g h i j [ j j [ j k g g g g g g g l ",
"m n n n n n n n o p q [ r q s n n n n n n n n t ",
"u v v v v v v v w x y z A B C w v v v v v v v D ",
"E F F F F F F G H I [ J I [ K L G F F F F F F M ",
"N O O O O O O P Q [ R S T U [ Q V O O O O O O W ",
"X Y Y Y Y Y Y Z [ `  .Y ..+.` [ @.Y Y Y Y Y Y #.",
"$.%.%.%.%.%.%.&.*.=.%.%.%.-.;.;.-.%.%.%.%.%.%.>.",
",.'.'.'.'.'.'.'.'.'.'.'.'.'.'.'.'.'.'.'.'.'.'.).",
"!.~.~.~.~.~.~.~.~.~.~.~.~.~.~.~.~.~.~.~.~.~.~.{.",
"].^.^.^.^.^.^.^.^.^.^.^.^.^.^.^.^.^.^.^.^.^.^./.",
"(._._._._._._._._._._._._._._._._._._._._._._.:.",
"<.[.[.[.[.[.[.[.[.[.[.[.[.[.[.[.[.[.[.[.[.[.[.}.",
"|.1.1.1.1.1.1.1.1.1.1.1.1.1.1.1.1.1.1.1.1.1.1.2."};
