/* XPM */
static char * hide_inactive_xpm[] = {
"24 21 30 1",
" 	c #4C4A4A",
".	c #494747",
"+	c #454444",
"@	c #4B4A4A",
"#	c #484747",
"$	c #454343",
"%	c #4B4949",
"&	c #484646",
"*	c #4A4949",
"=	c #474646",
"-	c #444242",
";	c #4A4848",
">	c #474545",
",	c #494848",
"'	c #464545",
")	c #444141",
"!	c #464444",
"~	c #434141",
"{	c #424040",
"]	c #423F3F",
"^	c #413F3F",
"/	c #413E3E",
"(	c #555555",
"_	c #434040",
":	c #403E3E",
"<	c #403D3D",
"[	c #3F3D3D",
"}	c #3F3C3C",
"|	c #3E3C3C",
"1	c #3E3B3B",
" ......................+",
"@######################$",
"%&&&&&&&&&&&&&&&&&&&&&&$",
"*======================-",
";>>>>>>>>>>>>>>>>>>>>>>-",
",'''''''''''''''''''''')",
".!!!!!!!!!!!!!!!!!!!!!!~",
"&!!!!!!!!!!!!!!!!!!!!!!~",
"&$$$$$$$$$$$$$$$$$$$$$${",
">$$$$$$$$$$$$$$$$$$$$$${",
">----------------------]",
"'----------------------^",
"!~~~~~~~+#.....#+~~~~~~/",
"+~~~~~~~(((((((((~~~~~~/",
"$_______$######&$______:",
"${{{{{{{{{{{{{{{{{{{{{{<",
"-]]]]]]]]]]]]]]]]]]]]]][",
")^^^^^^^^^^^^^^^^^^^^^^[",
"~//////////////////////}",
"_::::::::::::::::::::::|",
"{<<<<<<<<<<<<<<<<<<<<<<1"};
