/* XPM */
static char * maximize_active_xpm[] = {
"24 21 85 1",
" 	c None",
".	c #2EB7FF",
"+	c #0683C4",
"@	c #26B4FF",
"#	c #2BB3FA",
"$	c #0780BE",
"%	c #1FB2FF",
"&	c #29AFF5",
"*	c #087DB9",
"=	c #18AFFF",
"-	c #26ABF0",
";	c #097AB4",
">	c #11ADFF",
",	c #24A7EC",
"'	c #0A77AF",
")	c #0AAAFF",
"!	c #21A3E7",
"~	c #0B74AA",
"{	c #03A8FF",
"]	c #1F9FE2",
"^	c #3EACE6",
"/	c #FFFFFF",
"(	c #4CB2E8",
"_	c #0C71A5",
":	c #03A5FA",
"<	c #1C9BDD",
"[	c #7DC6EC",
"}	c #7FC7EC",
"|	c #0D6EA0",
"1	c #03A2F5",
"2	c #1A97D9",
"3	c #81C6EA",
"4	c #0F6B9B",
"5	c #049FF0",
"6	c #1793D4",
"7	c #44A8DC",
"8	c #7DC2E7",
"9	c #80C4E7",
"0	c #94CDEB",
"a	c #106896",
"b	c #049CEC",
"c	c #158FCF",
"d	c #FCFDFE",
"e	c #FEFEFE",
"f	c #FDFDFD",
"g	c #116591",
"h	c #0499E7",
"i	c #128BCA",
"j	c #43A3D5",
"k	c #7EC0E2",
"l	c #81C1E3",
"m	c #91C9E6",
"n	c #12628C",
"o	c #0596E2",
"p	c #1087C6",
"q	c #7CBDE0",
"r	c #135F87",
"s	c #0593DD",
"t	c #0D83C1",
"u	c #77B9DC",
"v	c #E3F1F8",
"w	c #145C82",
"x	c #0690D9",
"y	c #0B7FBC",
"z	c #3C99C9",
"A	c #3D99CA",
"B	c #15597D",
"C	c #068DD4",
"D	c #097CB8",
"E	c #175778",
"F	c #068ACF",
"G	c #097BB7",
"H	c #165879",
"I	c #0787CA",
"J	c #097BB6",
"K	c #16597B",
"L	c #0784C6",
"M	c #097AB5",
"N	c #165A7D",
"O	c #0881C1",
"P	c #0A7AB4",
"Q	c #165B7F",
"R	c #087EBC",
"S	c #0A79B3",
"T	c #165C81",
".......................+",
"@######################$",
"%&&&&&&&&&&&&&&&&&&&&&&*",
"=----------------------;",
">,,,,,,,,,,,,,,,,,,,,,,'",
")!!!!!!!!!!!!!!!!!!!!!!~",
"{]]]]]]]]]]^/(]]]]]]]]]_",
":<<<<<<<<<<[/}<<<<<<<<<|",
"122222222223/32222222224",
"566666667890/0987666666a",
"bcccccccdd////e/fccccccg",
"hiiiiiiijklm/mlkjiiiiiin",
"oppppppppppq/qpppppppppr",
"sttttttttttuvutttttttttw",
"xyyyyyyyyyyz/AyyyyyyyyyB",
"CDDDDDDDDDDDDDDDDDDDDDDE",
"FGGGGGGGGGGGGGGGGGGGGGGH",
"IJJJJJJJJJJJJJJJJJJJJJJK",
"LMMMMMMMMMMMMMMMMMMMMMMN",
"OPPPPPPPPPPPPPPPPPPPPPPQ",
"RSSSSSSSSSSSSSSSSSSSSSST"};
