/* XPM */
static char * shade_prelight_xpm[] = {
"24 21 97 2",
"  	c None",
". 	c #18B0FF",
"+ 	c #4EC2FF",
"@ 	c #0093E0",
"# 	c #16ADFC",
"$ 	c #48BEFD",
"% 	c #0190DA",
"& 	c #14ABF9",
"* 	c #43BBFB",
"= 	c #028DD5",
"- 	c #13A9F7",
"; 	c #3EB8F9",
"> 	c #038AD0",
", 	c #11A6F4",
"' 	c #39B5F7",
") 	c #0587CB",
"! 	c #10A4F1",
"~ 	c #34B2F5",
"{ 	c #0684C6",
"] 	c #0EA2EF",
"^ 	c #2EAFF3",
"/ 	c #0781C1",
"( 	c #0C9FEC",
"_ 	c #29ACF1",
": 	c #087EBC",
"< 	c #0B9DE9",
"[ 	c #24A9EF",
"} 	c #66C4F5",
"| 	c #67C4F5",
"1 	c #0A7BB6",
"2 	c #099BE7",
"3 	c #1FA6ED",
"4 	c #6EC6F4",
"5 	c #90D3F7",
"6 	c #0B78B1",
"7 	c #0898E4",
"8 	c #1AA3EB",
"9 	c #1BA3EB",
"0 	c #5FBFF2",
"a 	c #8ED2F6",
"b 	c #FFFFFF",
"c 	c #5EBFF2",
"d 	c #0C75AC",
"e 	c #0696E1",
"f 	c #14A0E9",
"g 	c #15A0E9",
"h 	c #5ABCF0",
"i 	c #87CFF4",
"j 	c #88CFF4",
"k 	c #86CEF4",
"l 	c #57BBEF",
"m 	c #0D72A7",
"n 	c #0494DF",
"o 	c #0F9DE7",
"p 	c #36ADEB",
"q 	c #87CEF3",
"r 	c #85CDF3",
"s 	c #53B9EE",
"t 	c #54B9EE",
"u 	c #84CDF3",
"v 	c #33ACEB",
"w 	c #0F6FA2",
"x 	c #0391DC",
"y 	c #0A9AE5",
"z 	c #31AAE9",
"A 	c #E7F5FC",
"B 	c #9CD6F4",
"C 	c #4DB6EC",
"D 	c #0B9AE5",
"E 	c #50B7EC",
"F 	c #84CCF2",
"G 	c #2FA9E9",
"H 	c #106C9D",
"I 	c #018FD9",
"J 	c #0597E3",
"K 	c #0798E3",
"L 	c #2BA7E7",
"M 	c #28A6E7",
"N 	c #0697E3",
"O 	c #2AA6E7",
"P 	c #116998",
"Q 	c #008DD7",
"R 	c #0094E2",
"S 	c #136793",
"T 	c #008FDA",
"U 	c #0096E5",
"V 	c #126894",
"W 	c #0091DE",
"X 	c #0098E9",
"Y 	c #126996",
"Z 	c #0093E1",
"` 	c #009AEC",
" .	c #116A98",
"..	c #009DF0",
"+.	c #116B9A",
"@.	c #009FF4",
"#.	c #106C9C",
". + + + + + + + + + + + + + + + + + + + + + + @ ",
"# $ $ $ $ $ $ $ $ $ $ $ $ $ $ $ $ $ $ $ $ $ $ % ",
"& * * * * * * * * * * * * * * * * * * * * * * = ",
"- ; ; ; ; ; ; ; ; ; ; ; ; ; ; ; ; ; ; ; ; ; ; > ",
", ' ' ' ' ' ' ' ' ' ' ' ' ' ' ' ' ' ' ' ' ' ' ) ",
"! ~ ~ ~ ~ ~ ~ ~ ~ ~ ~ ~ ~ ~ ~ ~ ~ ~ ~ ~ ~ ~ ~ { ",
"] ^ ^ ^ ^ ^ ^ ^ ^ ^ ^ ^ ^ ^ ^ ^ ^ ^ ^ ^ ^ ^ ^ / ",
"( _ _ _ _ _ _ _ _ _ _ _ _ _ _ _ _ _ _ _ _ _ _ : ",
"< [ [ [ [ [ [ [ [ [ [ } | [ [ [ [ [ [ [ [ [ [ 1 ",
"2 3 3 3 3 3 3 3 3 3 4 5 5 4 3 3 3 3 3 3 3 3 3 6 ",
"7 8 8 8 8 8 8 8 9 0 a b b a c 9 8 8 8 8 8 8 8 d ",
"e f f f f f f g h i b j i b k l g f f f f f f m ",
"n o o o o o o p q b r s t u b q v o o o o o o w ",
"x y y y y y y z A B C y D E F b G y y y y y y H ",
"I J J J J J J K L M J J J N O O N J J J J J J P ",
"Q R R R R R R R R R R R R R R R R R R R R R R S ",
"T U U U U U U U U U U U U U U U U U U U U U U V ",
"W X X X X X X X X X X X X X X X X X X X X X X Y ",
"Z ` ` ` ` ` ` ` ` ` ` ` ` ` ` ` ` ` ` ` ` ` `  .",
"U ............................................+.",
"X @.@.@.@.@.@.@.@.@.@.@.@.@.@.@.@.@.@.@.@.@.@.#."};
