/* XPM */
static char * shade_toggled_pressed_xpm[] = {
"24 21 72 1",
" 	c None",
".	c #0E72A6",
"+	c #116A98",
"@	c #0E70A3",
"#	c #116A99",
"$	c #0F6EA0",
"%	c #116B9B",
"&	c #0F6D9D",
"*	c #106C9D",
"=	c #106B9A",
"-	c #0F6DA0",
";	c #116997",
">	c #0E6FA2",
",	c #126895",
"'	c #0E70A5",
")	c #3285B2",
"!	c #3587B3",
"~	c #0F71A5",
"{	c #2E83B1",
"]	c #3185B2",
"^	c #116895",
"/	c #0D72A7",
"(	c #3388B5",
"_	c #FFFFFF",
":	c #86B9D3",
"<	c #529AC0",
"[	c #0E73A7",
"}	c #559CC1",
"|	c #86B8D3",
"1	c #3086B4",
"2	c #116896",
"3	c #0C73AA",
"4	c #2A84B4",
"5	c #85B9D4",
"6	c #84B8D4",
"7	c #529BC2",
"8	c #539CC3",
"9	c #83B8D4",
"0	c #2682B3",
"a	c #0C74AC",
"b	c #0D75AC",
"c	c #529CC4",
"d	c #84B9D5",
"e	c #4F9AC3",
"f	c #0B76AF",
"g	c #0C77AF",
"h	c #519DC6",
"i	c #84BAD7",
"j	c #509DC6",
"k	c #0A77B1",
"l	c #0B78B1",
"m	c #519EC8",
"n	c #83BAD8",
"o	c #82BAD7",
"p	c #509EC7",
"q	c #116998",
"r	c #0A79B4",
"s	c #0B7AB4",
"t	c #53A1CA",
"u	c #097AB6",
"v	c #106A99",
"w	c #087CB9",
"x	c #106A9A",
"y	c #087DBB",
"z	c #077EBE",
"A	c #106B9B",
"B	c #0680C0",
"C	c #106B9C",
"D	c #0681C3",
"E	c #106C9C",
"F	c #0583C5",
"G	c #0484C8",
".++++++++++++++++++++++.",
"@######################@",
"$%%%%%%%%%%%%%%%%%%%%%%$",
"&**********************&",
"=----------------------=",
";>>>>>>>>>>>>>>>>>>>>>>;",
",'''''''')!~''~{]'''''',",
"^///////(_:</[}|_1/////^",
"2333333345_6789_50333332",
"2aaaaaaabcd_dd_deaaaaaa2",
";ffffffffghi__ijfffffff;",
";kkkkkkkkklmnoplkkkkkkk;",
"qrrrrrrrssssttsssrrrrrrq",
"#uuuuuuuuuuuuuuuuuuuuuu#",
"vwwwwwwwwwwwwwwwwwwwwwwv",
"xyyyyyyyyyyyyyyyyyyyyyyx",
"=zzzzzzzzzzzzzzzzzzzzzz=",
"ABBBBBBBBBBBBBBBBBBBBBBA",
"CDDDDDDDDDDDDDDDDDDDDDDC",
"EFFFFFFFFFFFFFFFFFFFFFFE",
"*GGGGGGGGGGGGGGGGGGGGGG*"};
