/* XPM */
static char * shade_pressed_xpm[] = {
"24 21 73 1",
" 	c None",
".	c #0E72A6",
"+	c #116A98",
"@	c #0E70A3",
"#	c #116A99",
"$	c #0F6EA0",
"%	c #116B9B",
"&	c #0F6D9D",
"*	c #106C9D",
"=	c #106B9A",
"-	c #0F6DA0",
";	c #116997",
">	c #0E6FA2",
",	c #126895",
"'	c #0E70A5",
")	c #116895",
"!	c #0D72A7",
"~	c #116896",
"{	c #0C73AA",
"]	c #0C74AC",
"^	c #0D75AC",
"/	c #5EA3C8",
"(	c #0B76AF",
"_	c #509DC6",
":	c #84BAD7",
"<	c #0A77B1",
"[	c #0B78B1",
"}	c #519EC8",
"|	c #83BAD8",
"1	c #FFFFFF",
"2	c #82BAD7",
"3	c #509EC7",
"4	c #116998",
"5	c #0A79B4",
"6	c #0B7AB4",
"7	c #53A1CA",
"8	c #9AC8E0",
"9	c #83BBD9",
"0	c #82BBD9",
"a	c #81BAD8",
"b	c #509FC9",
"c	c #097AB6",
"d	c #318FC2",
"e	c #84BCDA",
"f	c #82BBDA",
"g	c #4EA0CB",
"h	c #4FA0CB",
"i	c #81BBD9",
"j	c #2E8EC1",
"k	c #106A99",
"l	c #087CB9",
"m	c #3091C4",
"n	c #84BEDC",
"o	c #4CA0CC",
"p	c #097DB9",
"q	c #4FA2CD",
"r	c #83BDDC",
"s	c #2D90C3",
"t	c #106A9A",
"u	c #087DBB",
"v	c #0A7EBC",
"w	c #2E91C5",
"x	c #2B8FC5",
"y	c #097EBB",
"z	c #2D90C5",
"A	c #077EBE",
"B	c #106B9B",
"C	c #0680C0",
"D	c #106B9C",
"E	c #0681C3",
"F	c #106C9C",
"G	c #0583C5",
"H	c #0484C8",
".++++++++++++++++++++++.",
"@######################@",
"$%%%%%%%%%%%%%%%%%%%%%%$",
"&**********************&",
"=----------------------=",
";>>>>>>>>>>>>>>>>>>>>>>;",
",'''''''''''''''''''''',",
")!!!!!!!!!!!!!!!!!!!!!!)",
"~{{{{{{{{{{{{{{{{{{{{{{~",
"~]]]]]]]^]]]//]]]]]]]]]~",
";((((((((((_::_((((((((;",
";<<<<<<<<[}|1123[<<<<<<;",
"455555556781901ab6555554",
"#cccccccde1fghi1ejccccc#",
"klllllllm1nolpqr1slllllk",
"tuuuuuuuvwxuuuyzzyuuuuut",
"=AAAAAAAAAAAAAAAAAAAAAA=",
"BCCCCCCCCCCCCCCCCCCCCCCB",
"DEEEEEEEEEEEEEEEEEEEEEED",
"FGGGGGGGGGGGGGGGGGGGGGGF",
"*HHHHHHHHHHHHHHHHHHHHHH*"};
