/* XPM */
static char * title_1_inactive_xpm[] = {
"3 23 18 1",
" 	c #3F3D3D",
".	c #484747",
"+	c #484646",
"@	c #474545",
"#	c #464545",
"$	c #464444",
"%	c #454444",
"&	c #454343",
"*	c #444242",
"=	c #444141",
"-	c #434141",
";	c #434040",
">	c #424040",
",	c #423F3F",
"'	c #413F3F",
")	c #413E3E",
"!	c #403E3E",
"~	c #403D3D",
"   ",
"...",
"+++",
"+++",
"@@@",
"@@@",
"###",
"$$$",
"%%%",
"&&&",
"&&&",
"***",
"***",
"===",
"---",
";;;",
">>>",
",,,",
"'''",
")))",
"!!!",
"~~~",
"   "};
